<?xml version="1.0" encoding="UTF-8"?>
<!DOCTYPE svg PUBLIC "-//W3C//DTD SVG 1.1//EN" "http://www.w3.org/Graphics/SVG/1.1/DTD/svg11.dtd">
<svg xmlns="http://www.w3.org/2000/svg" version="1.1" width="512px" height="512px" style="shape-rendering:geometricPrecision; text-rendering:geometricPrecision; image-rendering:optimizeQuality; fill-rule:evenodd; clip-rule:evenodd" xmlns:xlink="http://www.w3.org/1999/xlink">
<g><path style="opacity:0.984" fill="#f5e042" d="M 246.5,-0.5 C 249.833,-0.5 253.167,-0.5 256.5,-0.5C 261.774,6.14464 264.608,13.8113 265,22.5C 265.667,139.5 265.667,256.5 265,373.5C 264.095,379.6 262.761,385.6 261,391.5C 260.033,394.621 258.2,396.954 255.5,398.5C 231.163,396.662 217.329,383.662 214,359.5C 213.333,252.5 213.333,145.5 214,38.5C 216.347,18.3275 227.181,5.32751 246.5,-0.5 Z"/></g>
<g><path style="opacity:0.973" fill="#f5ce42" d="M 256.5,-0.5 C 259.167,-0.5 261.833,-0.5 264.5,-0.5C 283.819,5.32751 294.653,18.3275 297,38.5C 297.667,145.5 297.667,252.5 297,359.5C 293.671,383.662 279.837,396.662 255.5,398.5C 258.2,396.954 260.033,394.621 261,391.5C 262.761,385.6 264.095,379.6 265,373.5C 265.667,256.5 265.667,139.5 265,22.5C 264.608,13.8113 261.774,6.14464 256.5,-0.5 Z"/></g>
<g><path style="opacity:0.977" fill="#f5e042" d="M 255.5,428.5 C 259.5,431.816 262,436.149 263,441.5C 266.607,461.583 266.274,481.583 262,501.5C 260.914,505.346 259.081,508.68 256.5,511.5C 253.167,511.5 249.833,511.5 246.5,511.5C 219.241,501.65 209.407,482.65 217,454.5C 224.462,438.01 237.296,429.343 255.5,428.5 Z"/></g>
<g><path style="opacity:0.963" fill="#f5ce42" d="M 255.5,428.5 C 280.887,430.72 294.887,444.554 297.5,470C 295.875,491.443 284.875,505.276 264.5,511.5C 261.833,511.5 259.167,511.5 256.5,511.5C 259.081,508.68 260.914,505.346 262,501.5C 266.274,481.583 266.607,461.583 263,441.5C 262,436.149 259.5,431.816 255.5,428.5 Z"/></g>
</svg>
