<svg xmlns="http://www.w3.org/2000/svg" xmlns:xlink="http://www.w3.org/1999/xlink" width="64px" height="64px" viewBox="0 0 64 64" version="1.1">
<defs fill="#000000">
<filter id="alpha" filterUnits="objectBoundingBox" x="0%" y="0%" width="100%" height="100%" fill="#000000">
  <feColorMatrix type="matrix" in="SourceGraphic" values="0 0 0 0 1 0 0 0 0 1 0 0 0 0 1 0 0 0 1 0" fill="#000000"/>
</filter>
<mask id="mask0" fill="#000000">
  <g filter="url(#alpha)">
<rect x="0" y="0" width="64" height="64" style="fill:rgb(0%,0%,0%);fill-opacity:0.984314;stroke:none;"/>
  </g>
</mask>
<clipPath id="clip1" fill="#000000">
  <rect x="0" y="0" width="64" height="64" fill="#000000"/>
</clipPath>
<g id="surface5" clip-path="url(#clip1)">
<path style=" stroke:none;fill-rule:evenodd;fill:#e91e1e;fill-opacity:1;" d="M 30.8125 -0.0625 C 31.230469 -0.0625 31.644531 -0.0625 32.0625 -0.0625 C 32.722656 0.769531 33.074219 1.726562 33.125 2.8125 C 33.207031 17.4375 33.207031 32.0625 33.125 46.6875 C 33.011719 47.449219 32.84375 48.199219 32.625 48.9375 C 32.503906 49.328125 32.273438 49.621094 31.9375 49.8125 C 28.894531 49.582031 27.167969 47.957031 26.75 44.9375 C 26.667969 31.5625 26.667969 18.1875 26.75 4.8125 C 27.042969 2.289062 28.398438 0.664062 30.8125 -0.0625 Z M 30.8125 -0.0625 "/>
</g>
<mask id="mask1" fill="#000000">
  <g filter="url(#alpha)">
<rect x="0" y="0" width="64" height="64" style="fill:rgb(0%,0%,0%);fill-opacity:0.972549;stroke:none;"/>
  </g>
</mask>
<clipPath id="clip2" fill="#000000">
  <rect x="0" y="0" width="64" height="64" fill="#000000"/>
</clipPath>
<g id="surface8" clip-path="url(#clip2)">
<path style=" stroke:none;fill-rule:evenodd;fill:#c21708;fill-opacity:1;" d="M 32.0625 -0.0625 C 32.394531 -0.0625 32.730469 -0.0625 33.0625 -0.0625 C 35.476562 0.664062 36.832031 2.289062 37.125 4.8125 C 37.207031 18.1875 37.207031 31.5625 37.125 44.9375 C 36.707031 47.957031 34.980469 49.582031 31.9375 49.8125 C 32.273438 49.621094 32.503906 49.328125 32.625 48.9375 C 32.84375 48.199219 33.011719 47.449219 33.125 46.6875 C 33.207031 32.0625 33.207031 17.4375 33.125 2.8125 C 33.074219 1.726562 32.722656 0.769531 32.0625 -0.0625 Z M 32.0625 -0.0625 "/>
</g>
<mask id="mask2" fill="#000000">
  <g filter="url(#alpha)">
<rect x="0" y="0" width="64" height="64" style="fill:rgb(0%,0%,0%);fill-opacity:0.976471;stroke:none;"/>
  </g>
</mask>
<clipPath id="clip3" fill="#000000">
  <rect x="0" y="0" width="64" height="64" fill="#000000"/>
</clipPath>
<g id="surface11" clip-path="url(#clip3)">
<path style=" stroke:none;fill-rule:evenodd;fill:#e91e1e;fill-opacity:1;" d="M 31.9375 53.5625 C 32.4375 53.976562 32.75 54.519531 32.875 55.1875 C 33.324219 57.699219 33.285156 60.199219 32.75 62.6875 C 32.613281 63.167969 32.386719 63.585938 32.0625 63.9375 C 31.644531 63.9375 31.230469 63.9375 30.8125 63.9375 C 27.40625 62.707031 26.175781 60.332031 27.125 56.8125 C 28.058594 54.75 29.660156 53.667969 31.9375 53.5625 Z M 31.9375 53.5625 "/>
</g>
<mask id="mask3" fill="#000000">
  <g filter="url(#alpha)">
<rect x="0" y="0" width="64" height="64" style="fill:rgb(0%,0%,0%);fill-opacity:0.964706;stroke:none;"/>
  </g>
</mask>
<clipPath id="clip4" fill="#000000">
  <rect x="0" y="0" width="64" height="64" fill="#000000"/>
</clipPath>
<g id="surface14" clip-path="url(#clip4)">
<path style=" stroke:none;fill-rule:evenodd;fill:#c21708;fill-opacity:1;" d="M 31.9375 53.5625 C 35.109375 53.839844 36.859375 55.570312 37.1875 58.75 C 36.984375 61.429688 35.609375 63.160156 33.0625 63.9375 C 32.730469 63.9375 32.394531 63.9375 32.0625 63.9375 C 32.386719 63.585938 32.613281 63.167969 32.75 62.6875 C 33.285156 60.199219 33.324219 57.699219 32.875 55.1875 C 32.75 54.519531 32.4375 53.976562 31.9375 53.5625 Z M 31.9375 53.5625 "/>
</g>
</defs>
<g id="surface1">
<use xlink:href="#surface5" mask="url(#mask0)" fill="#000000"/>
<use xlink:href="#surface8" mask="url(#mask1)" fill="#000000"/>
<use xlink:href="#surface11" mask="url(#mask2)" fill="#000000"/>
<use xlink:href="#surface14" mask="url(#mask3)" fill="#000000"/>
</g>
</svg>