<svg xmlns="http://www.w3.org/2000/svg" width="406" height="406" viewBox="0 0 406 406" version="1.1"><path d="M 149.716 95.530 C 144.234 97.542, 139.349 101.405, 132.145 109.426 C 123.505 119.044, 120.604 124.838, 120.546 132.596 C 120.517 136.395, 121.024 139.324, 121.892 140.369 C 123.089 141.812, 123.037 142.591, 121.523 145.948 C 120.280 148.705, 119.962 150.973, 120.440 153.675 C 120.812 155.779, 121.285 159.611, 121.491 162.190 C 121.697 164.770, 122.382 167.845, 123.013 169.025 C 124.310 171.447, 130.176 174.254, 132.266 173.451 C 133.083 173.138, 134.105 173.934, 134.776 175.408 C 136.368 178.902, 140.230 181.150, 145.068 181.399 C 147.750 181.537, 149.536 182.207, 150.151 183.306 C 151.335 185.421, 156.207 188, 159.018 188 L 161.136 188 159.082 190.885 C 157.952 192.472, 156.157 195.800, 155.094 198.280 C 153.265 202.547, 152.899 202.826, 148.310 203.457 C 143.262 204.152, 139.157 203.174, 137.381 200.854 C 136.811 200.109, 135.538 197.250, 134.552 194.500 C 131.379 185.645, 128.359 181.350, 123.764 179.155 C 112.295 173.674, 67.296 165.867, 45.845 165.636 C 38.884 165.561, 32.911 165.773, 32.571 166.107 C 30.895 167.753, 34.068 170.469, 42.130 174.289 C 49.002 177.546, 50.922 178.894, 50.604 180.238 C 49.892 183.250, 53.793 186.884, 59.529 188.551 C 64.679 190.049, 64.900 190.250, 64.357 192.967 C 63.487 197.316, 67.241 199.266, 77.524 199.806 L 85.835 200.242 85.303 203.523 C 84.513 208.387, 87.930 210.250, 98.677 210.814 C 104.694 211.130, 106.832 211.568, 106.071 212.329 C 104.268 214.132, 104.858 217.853, 107.140 219.075 C 108.359 219.727, 111.798 220.038, 115.132 219.797 C 120.047 219.441, 121.072 219.653, 121.537 221.117 C 122.264 223.406, 126.975 224.377, 131.412 223.152 C 133.769 222.501, 136.080 222.519, 138.316 223.205 C 140.889 223.995, 142.979 223.857, 147.242 222.618 C 150.303 221.728, 153.005 221, 153.246 221 C 153.486 221, 154.221 222.795, 154.879 224.989 C 155.536 227.183, 159.070 234.446, 162.733 241.128 C 168.297 251.279, 169.461 254.232, 169.812 259.075 C 170.224 264.778, 170.160 264.948, 165.798 269.564 L 161.365 274.256 158.179 265.350 C 151.865 247.696, 141.802 234.490, 130.385 228.869 C 122.464 224.969, 116.332 224.287, 108.116 226.392 C 104.663 227.276, 101.464 228, 101.007 228 C 100.549 228, 97.479 225.747, 94.184 222.994 C 86.467 216.546, 83.287 215.836, 79.205 219.650 C 75.760 222.870, 74.613 225.810, 75.962 227.960 C 76.748 229.214, 77.159 229.166, 78.865 227.623 C 82.309 224.505, 84.231 225.945, 88.569 234.894 C 90.807 239.511, 93.669 244.123, 94.930 245.144 C 97.792 247.462, 105.577 247.622, 110.729 245.469 C 114.630 243.839, 116.996 244.122, 117.006 246.219 C 117.033 252.600, 122.512 260.690, 129.073 264.037 C 134.850 266.984, 141.362 271.589, 146.677 276.486 L 151.500 280.929 145.500 286.117 C 142.200 288.970, 135.343 295.526, 130.263 300.686 C 122.701 308.366, 120.240 311.675, 116.696 318.926 C 112.860 326.773, 112.154 327.666, 110.516 326.749 C 107.012 324.788, 98.646 325.558, 92.402 328.416 C 88.019 330.422, 84.285 333.418, 77.892 340.059 L 69.283 349 62.165 349 C 55.773 349, 54.887 349.243, 53.488 351.377 C 51 355.175, 50.011 359.813, 49.411 370.500 C 48.908 379.466, 49.064 380.838, 50.923 383.770 C 52.063 385.569, 54.027 387.511, 55.289 388.086 C 56.550 388.660, 58.014 390.114, 58.541 391.315 C 59.210 392.839, 60.378 393.500, 62.402 393.500 C 65.055 393.500, 65.545 392.907, 68.101 386.598 C 69.639 382.801, 72.204 378.076, 73.801 376.098 C 76.334 372.960, 77.331 372.467, 81.602 372.238 C 89.846 371.797, 107.779 369.029, 122.382 365.944 L 136.265 363.011 148.711 366.990 C 164.395 372.004, 172.185 373.362, 182 372.794 C 195.477 372.014, 205.150 365.560, 214.495 351.113 C 216.980 347.273, 219.882 343.855, 220.945 343.518 C 224.004 342.546, 228.839 336.375, 229.563 332.517 C 230.026 330.049, 231.409 328.052, 234.170 325.865 C 238.022 322.815, 238.114 322.594, 238.022 316.620 C 237.971 313.254, 238.226 307.800, 238.591 304.500 C 239.232 298.684, 239.298 296.011, 238.941 290.250 C 238.847 288.738, 239.272 283.687, 239.885 279.026 C 240.498 274.366, 241 265.938, 241 260.297 C 241 251.965, 241.477 248.622, 243.543 242.468 C 245.043 237.999, 246.375 231.141, 246.793 225.739 L 247.500 216.584 255.115 225.664 C 263.646 235.839, 273.752 249.922, 282.445 263.750 C 285.643 268.837, 288.886 273, 289.651 273 C 291.907 273, 293.625 268.230, 292.194 265.939 C 289.620 261.818, 291.050 258.964, 303.231 243.917 C 315.426 228.852, 319.086 219.525, 321.039 198.530 C 321.652 191.947, 322.399 186.164, 322.699 185.679 C 324.067 183.465, 330.520 181.995, 339.218 181.916 C 344.323 181.869, 351.087 181.508, 354.250 181.113 L 360 180.395 360 183.626 C 360 188.403, 362.431 190.324, 367.723 189.728 C 375.094 188.897, 386 180.425, 386 175.530 C 386 173.728, 371.566 165.880, 367.290 165.358 C 362.916 164.824, 357.076 167.841, 356.882 170.735 C 356.710 173.295, 356.711 173.306, 357.404 175.598 C 358.015 177.620, 357.541 177.739, 344.269 178.895 C 336.696 179.554, 328.875 180.326, 326.888 180.611 C 323.521 181.094, 323.235 180.926, 322.679 178.145 C 322.331 176.404, 321.265 174.902, 320.122 174.539 C 318.760 174.106, 317.950 172.633, 317.468 169.708 C 316.260 162.386, 312.154 150.597, 309.611 147.150 C 306.123 142.423, 301.111 139.002, 288.060 132.442 C 271.905 124.321, 264.097 115.865, 268.381 111.131 C 270.573 108.710, 270.418 105.418, 268 103 C 263.988 98.988, 261.479 101.582, 260.552 110.700 C 259.571 120.343, 256.431 135.530, 252.528 149.500 C 250.684 156.100, 248.652 163.475, 248.012 165.888 L 246.849 170.276 242.174 165.684 C 237.358 160.953, 231.811 158, 227.740 158 C 224.901 158, 219.313 148.975, 215.976 139 C 213.831 132.587, 213.771 129.643, 215.597 120.236 C 216.566 115.247, 214.343 111.060, 209.576 108.895 C 207.334 107.877, 204.665 107.034, 203.644 107.022 C 202.623 107.010, 200.860 105.820, 199.726 104.379 C 197.215 101.186, 192.267 99, 187.553 99 C 185.622 99, 180.691 97.875, 176.595 96.500 C 168.048 93.631, 156.067 93.199, 149.716 95.530 M 157.500 97.827 C 150.502 98.639, 132.476 113.921, 128.397 122.500 C 126.074 127.385, 125.205 135.376, 126.765 137.500 C 127.169 138.050, 130.200 138.500, 133.500 138.500 C 137.857 138.500, 139.500 138.868, 139.500 139.844 C 139.500 140.775, 137.901 141.241, 134.297 141.362 C 124.948 141.673, 120.136 149.089, 125.148 155.461 C 126.867 157.647, 127.859 158.078, 130.124 157.625 C 132.938 157.062, 132.951 157.082, 132.374 161.290 C 131.868 164.977, 132.146 165.873, 134.533 168.261 C 136.040 169.767, 138.336 171, 139.636 171 C 142.287 171, 146 167.791, 146 165.500 C 146 164.675, 146.450 164, 147 164 C 147.550 164, 148 165.790, 148 167.977 C 148 173.306, 150.918 175.414, 156.256 173.940 C 159.888 172.937, 163 170.660, 163 169.005 C 163 168.537, 161.942 166.881, 160.649 165.327 C 157.198 161.179, 156 158.515, 156 154.992 C 156 150.589, 158.810 151.384, 160.482 156.259 C 162.150 161.123, 163.768 163.004, 167.702 164.648 C 173.075 166.894, 178.774 163.617, 175.598 160.108 C 173.999 158.342, 173.370 154, 174.712 154 C 175.104 154, 176.382 155.201, 177.553 156.668 C 180.249 160.050, 182.422 159.319, 184.507 154.329 C 186.321 149.988, 187.500 149.037, 191.095 149.015 C 192.522 149.007, 194.462 148.147, 195.405 147.105 C 197.036 145.303, 196.992 145.083, 194.505 142.596 C 192.327 140.418, 191.942 139.231, 192.196 135.476 C 192.591 129.620, 194.336 129.269, 195.086 134.894 C 195.618 138.874, 197.863 142, 200.191 142 C 201.541 142, 205 138.096, 205 136.571 C 205 135.786, 204.325 134.468, 203.500 133.643 C 201.242 131.385, 201.556 128.651, 204 129.290 C 205.549 129.695, 206 129.320, 206 127.629 C 206 126.428, 207.350 124.261, 209 122.813 C 212.676 119.587, 212.807 116.716, 209.434 113.343 C 207.381 111.290, 206.250 110.900, 203.784 111.393 C 201.080 111.934, 200.279 111.517, 197.272 108.005 C 193.953 104.127, 193.647 104, 187.612 104 C 183.279 104, 179.416 103.222, 174.940 101.448 C 167.551 98.520, 161.804 97.327, 157.500 97.827 M 154.021 106.116 C 150.478 107.530, 148 110.015, 148 112.155 C 148 114.446, 151.237 114.624, 153.055 112.434 C 154.926 110.179, 159.503 108, 162.369 108 C 165.475 108, 168 107.055, 168 105.893 C 168 104.696, 157.145 104.870, 154.021 106.116 M 259.049 134.548 C 257.250 142.222, 253.353 157.001, 250.389 167.390 C 247.425 177.780, 245 186.443, 245 186.640 C 245 186.838, 246.525 187, 248.389 187 C 251.470 187, 256.059 185.875, 277.500 179.866 C 282.361 178.503, 286.946 177.980, 292.503 178.152 C 298.688 178.344, 301.487 177.958, 304.825 176.450 L 309.144 174.500 308.683 168.928 C 307.745 157.592, 301.954 150.608, 285.421 140.876 C 274.994 134.738, 267.094 128.206, 263.858 123.048 C 262.374 120.683, 262.204 121.090, 259.049 134.548 M 133.580 123.912 C 132.572 125.025, 131.986 126.975, 132.175 128.584 C 132.576 131.996, 135 133.114, 135 129.888 C 135 128.635, 136.209 126.347, 137.687 124.805 L 140.374 122 137.842 122 C 136.449 122, 134.532 122.860, 133.580 123.912 M 208.472 129.046 C 208.116 129.621, 208.110 132.209, 208.458 134.796 L 209.090 139.500 201.609 147.250 C 197.056 151.967, 193.325 155, 192.077 155 C 190.771 155, 189.107 156.454, 187.500 159 C 186.111 161.200, 184.451 163, 183.810 163 C 183.170 163, 181.483 164.393, 180.061 166.096 C 178.069 168.483, 176.438 169.309, 172.945 169.703 C 169.295 170.114, 168.098 170.764, 166.790 173.043 C 165.613 175.094, 163.717 176.304, 159.901 177.437 C 157.006 178.296, 154.044 179, 153.318 179 C 151.229 179, 151.785 181.736, 154.223 183.443 C 156.480 185.025, 161.127 185.540, 162.325 184.342 C 162.687 183.980, 162.494 183.095, 161.897 182.376 C 161.300 181.656, 160.992 180.525, 161.213 179.862 C 161.457 179.129, 163.203 180.092, 165.670 182.321 C 174.125 189.959, 188.797 194.381, 200.416 192.792 C 208.912 191.630, 217.654 186.623, 221.750 180.574 C 224.510 176.498, 225 174.882, 225 169.855 C 225 163.674, 223.490 158.901, 219.969 153.957 C 217.978 151.160, 217.778 151.100, 215.486 152.601 C 211.876 154.967, 210.189 153.221, 213.520 150.566 C 215.612 148.898, 216.093 147.867, 215.561 146.192 C 214.764 143.681, 212.490 143.280, 211.638 145.500 C 210.955 147.280, 209 147.513, 209 145.814 C 209 145.162, 209.893 143.678, 210.985 142.515 C 212.799 140.585, 212.876 139.866, 211.879 134.201 C 210.831 128.255, 209.864 126.792, 208.472 129.046 M 172.479 132.260 C 171.765 136.069, 173.299 140.794, 175.528 141.649 C 177.907 142.562, 178.518 141.230, 176.661 139.177 C 175.672 138.085, 175 135.655, 175 133.171 C 175 128.221, 173.349 127.624, 172.479 132.260 M 160.423 134.125 C 159.312 135.922, 159.618 142.418, 160.929 144.867 C 162.164 147.175, 165.859 149.145, 167.325 148.277 C 167.779 148.009, 167.133 146.706, 165.890 145.383 C 164.419 143.817, 163.539 141.498, 163.369 138.738 C 163.226 136.407, 163.085 134.162, 163.055 133.750 C 162.971 132.605, 161.206 132.857, 160.423 134.125 M 196.500 160.665 C 192.080 163.001, 190 165.077, 190 167.155 C 190 169.860, 191.572 169.410, 193.990 166.013 C 195.160 164.371, 197.523 162.663, 199.241 162.217 C 202.688 161.324, 204.234 158.977, 201.333 159.040 C 200.325 159.062, 198.150 159.793, 196.500 160.665 M 227.712 169.250 C 228.134 174.730, 227.838 176.177, 225.310 181 C 220.274 190.605, 209.304 196, 194.806 196 C 185.605 196, 177.488 193.941, 171.280 190.031 L 166.500 187.020 164.163 189.760 C 153.938 201.747, 154.785 217.348, 166.856 239.362 C 172.576 249.793, 176.224 258.979, 175.604 261.392 C 175.306 262.552, 172.798 266.287, 170.031 269.694 C 167.264 273.101, 165 276.357, 165 276.929 C 165 277.502, 167.810 279.390, 171.244 281.123 C 174.678 282.857, 180.003 286.049, 183.078 288.217 C 190.759 293.634, 196.763 294.152, 210.681 290.599 C 216.476 289.120, 223.645 288, 227.320 288 L 233.777 288 234.368 284.750 C 235.462 278.732, 236.984 263.540, 236.992 258.554 L 237 253.608 233.702 256.804 C 228.174 262.162, 226.931 260.120, 232.123 254.207 C 239.246 246.095, 244.553 229.914, 243.812 218.571 L 243.500 213.803 240.813 215.925 C 238.734 217.566, 237.746 219.754, 236.446 225.599 C 233.660 238.122, 226.172 245.331, 212.635 248.524 C 201.242 251.210, 180.870 249.958, 177.908 246.389 C 175.584 243.589, 178.416 243.161, 186 245.165 C 201.088 249.151, 217.652 246.047, 226.336 237.607 C 231.259 232.823, 235 224.356, 235 217.998 C 235 213.859, 236.817 212, 240.862 212 C 245.472 212, 248.852 202.995, 245.500 199.643 C 244.675 198.818, 244 197.631, 244 197.006 C 244 196.380, 243.533 194.997, 242.963 193.931 C 241.948 192.034, 241.867 192.039, 238.976 194.176 C 235.342 196.863, 233.867 195.835, 236.829 192.682 C 238.977 190.396, 239.774 185.596, 238.170 184.605 C 236.843 183.785, 227.240 194.139, 225.545 198.218 C 224.695 200.263, 224 203.478, 224 205.364 C 224 208.384, 223.404 209.174, 218.984 212.010 C 214.163 215.104, 206 223.359, 206 225.141 C 206 226.718, 203.370 226.028, 197.910 223.018 C 194.934 221.378, 191.488 220.028, 190.250 220.018 C 189.012 220.008, 188 219.550, 188 219 C 188 217.140, 194.632 217.985, 199.540 220.470 C 204.209 222.834, 205.927 222.636, 205.985 219.728 C 206.013 218.302, 214.366 209.862, 217.198 208.398 C 219.247 207.338, 220 206.202, 220 204.171 C 220 199.128, 224.869 191.182, 231.174 185.935 C 234.435 183.221, 237.527 181, 238.043 181 C 238.560 181, 239.545 181.900, 240.232 183 C 242.025 185.871, 242.788 185.500, 243.948 181.195 C 245.822 174.234, 242.222 167.385, 235.128 164.413 C 233.273 163.636, 230.738 163, 229.493 163 C 227.333 163, 227.252 163.283, 227.712 169.250 M 200.721 166.959 C 200.352 168.370, 199.364 169, 197.520 169 C 195.520 169, 194.937 169.437, 195.187 170.750 C 195.969 174.854, 202.308 172.353, 203.160 167.604 C 203.626 165.008, 201.386 164.416, 200.721 166.959 M 213.569 168.535 C 211.684 171.412, 212.028 172.587, 214.480 171.646 C 216.509 170.867, 217.541 168.141, 216.281 166.881 C 215.636 166.236, 214.703 166.805, 213.569 168.535 M 46.571 170.886 C 45.243 173.034, 51.115 175.128, 62.639 176.616 C 80.623 178.938, 81 179.011, 81 180.188 C 81 180.959, 77.738 181.078, 70 180.589 C 59.264 179.909, 59 179.943, 59 181.997 C 59 186.061, 72.301 189, 90.695 189 C 99.424 189, 100.128 189.141, 98.887 190.636 C 97.720 192.042, 95.871 192.196, 85.762 191.730 C 74.006 191.189, 70 191.521, 70 193.039 C 70 194.862, 78.284 196.405, 90.920 196.936 C 98.616 197.259, 104.483 197.934, 104.675 198.517 C 104.860 199.076, 103.293 199.579, 101.188 199.634 C 96.347 199.761, 93 201.528, 93 203.958 C 93 206.722, 98.820 208.279, 108.656 208.144 C 113.245 208.082, 117 208.237, 117 208.490 C 117 208.742, 115.650 209.647, 114 210.500 C 112.204 211.429, 111 212.843, 111 214.026 C 111 215.652, 111.683 216, 114.878 216 C 117.011 216, 120.371 215.325, 122.346 214.500 C 127.160 212.488, 127.500 212.588, 125.622 215.454 C 124.137 217.720, 124.143 217.981, 125.696 218.850 C 126.803 219.469, 128.921 219.326, 131.898 218.430 C 135.794 217.258, 136.643 217.272, 138.038 218.535 C 139.935 220.251, 145.429 220.444, 149.729 218.945 C 152.625 217.935, 152.751 217.652, 152.628 212.436 C 152.532 208.330, 152.169 207.108, 151.163 207.493 C 147.646 208.837, 141.868 209.112, 138.750 208.082 C 134.149 206.564, 131.459 203.522, 126.521 194.251 C 124.067 189.645, 121.141 185.664, 119.292 184.418 C 114.751 181.358, 82.542 174.198, 63.500 172.017 C 58.550 171.450, 52.859 170.732, 50.853 170.422 C 48.802 170.106, 46.927 170.308, 46.571 170.886 M 217.109 174.387 C 215.267 176.288, 214.266 178.046, 214.828 178.394 C 216.112 179.187, 222 174.275, 222 172.411 C 222 170.188, 220.651 170.733, 217.109 174.387 M 313.200 178.200 C 311.133 180.267, 311.865 181, 316 181 C 319.333 181, 320 180.667, 320 179 C 320 177.476, 319.333 177, 317.200 177 C 315.660 177, 313.860 177.540, 313.200 178.200 M 303.645 180.065 C 302.201 181.201, 300.541 181.834, 299.956 181.473 C 297.852 180.172, 281.551 180.894, 277.500 182.467 C 273.683 183.949, 274.162 183.993, 287.978 183.428 C 301.801 182.863, 307.869 181.640, 309.437 179.102 C 310.621 177.186, 306.416 177.885, 303.645 180.065 M 313.250 184.662 C 311.393 185.412, 311.737 189.743, 313.750 190.950 C 315.417 191.950, 315.417 192.050, 313.750 193.050 C 311.154 194.607, 311.574 197, 314.443 197 C 317.937 197, 319.598 194.049, 319.165 188.611 C 318.850 184.643, 318.499 184.011, 316.649 184.079 C 315.467 184.122, 313.938 184.385, 313.250 184.662 M 284.500 186.010 C 274.538 186.646, 262.750 188.474, 260.701 189.700 C 260.262 189.963, 260.413 190.793, 261.038 191.545 C 263.340 194.320, 260.879 195.076, 257.848 192.526 C 254.918 190.061, 251.640 189.453, 247.403 190.590 C 244.831 191.281, 245.247 195.043, 248.362 199.268 C 250.134 201.671, 250.263 202.563, 249.341 206.018 C 248.756 208.208, 248.448 210, 248.656 210 C 248.864 210, 254.300 208.861, 260.737 207.470 C 270.329 205.396, 272.943 205.148, 275.231 206.096 C 276.850 206.766, 279.730 206.979, 282.087 206.602 C 287.072 205.805, 297.379 200.712, 300.673 197.418 C 302.591 195.499, 303.503 195.199, 304.987 195.993 C 306.022 196.547, 307.292 197, 307.809 197 C 309.135 197, 310.064 191.572, 309.350 188 C 308.752 185.009, 308.731 185, 302.125 185.154 C 298.481 185.238, 290.550 185.623, 284.500 186.010 M 302 200.916 C 300.625 201.351, 296.350 203.292, 292.500 205.229 C 283.675 209.669, 280.154 210.426, 275.216 208.947 C 271.892 207.951, 269.821 208.100, 261.890 209.905 C 256.726 211.081, 251.460 212.274, 250.188 212.556 C 247.971 213.048, 248.069 213.282, 252.581 218.285 C 255.169 221.153, 262.634 230.700, 269.170 239.500 C 275.707 248.300, 281.898 256.625, 282.930 258 C 284.732 260.403, 284.833 260.422, 285.518 258.500 C 287.979 251.596, 292.638 243.329, 298.479 235.500 C 302.172 230.550, 306.221 224.475, 307.477 222 C 310.210 216.615, 312.327 207.653, 311.847 203.500 C 311.540 200.848, 311.094 200.478, 308 200.313 C 306.075 200.210, 303.375 200.481, 302 200.916 M 166.729 207.092 C 163.911 208.732, 165.640 209.858, 170.065 209.264 C 173.229 208.840, 174.771 209.194, 177.024 210.860 C 180.440 213.385, 181.138 213.523, 180.369 211.520 C 179.553 209.394, 173.679 205.995, 170.882 206.030 C 169.572 206.047, 167.703 206.525, 166.729 207.092 M 81.075 221.410 C 80.123 222.556, 80.455 222.941, 82.849 223.467 C 86.544 224.278, 88.350 226.264, 91.098 232.537 C 95.736 243.122, 98.623 244.921, 106.924 242.398 C 113.978 240.255, 114.199 239.976, 112.254 235.685 C 111.060 233.051, 110.112 232.133, 109.031 232.562 C 108.189 232.897, 106.071 233.410, 104.323 233.704 C 101.463 234.185, 100.400 233.531, 93.626 227.119 C 86.130 220.024, 83.295 218.735, 81.075 221.410 M 115.179 231.868 C 114.145 232.524, 114.508 233.732, 116.843 237.414 C 118.503 240.031, 120.125 244.272, 120.495 246.962 C 121.323 252.984, 123.232 254.851, 133.334 259.519 C 137.619 261.499, 142.785 264.606, 144.813 266.423 C 148.595 269.812, 154.859 273.474, 155.603 272.731 C 156.413 271.921, 150.826 256.461, 147.295 249.741 C 142.801 241.189, 135.670 234.573, 128.721 232.510 C 123.127 230.848, 117.228 230.569, 115.179 231.868 M 125.211 238.133 C 125.419 238.756, 127.087 239.769, 128.918 240.383 C 131.040 241.095, 133.746 243.461, 136.374 246.903 C 138.643 249.874, 141.266 252.783, 142.202 253.367 C 144.730 254.945, 145.820 253.094, 143.499 251.164 C 142.399 250.249, 139.924 247.475, 138 245 C 136.076 242.525, 133.601 239.727, 132.501 238.783 C 130.249 236.852, 124.616 236.349, 125.211 238.133 M 164.511 285.249 C 173.112 315.181, 178.484 324.700, 189.012 328.657 C 194.854 330.854, 204.682 336.584, 208.500 340.021 C 210.512 341.832, 212.494 342.328, 216.868 342.115 C 220.275 341.949, 227 334.911, 227 331.511 C 227 329.705, 226.578 328.971, 225.750 329.334 C 210.727 335.918, 207.025 336.377, 200.373 332.478 C 197.723 330.926, 194.249 327.372, 191.329 323.228 C 188.722 319.528, 184.656 314.201, 182.294 311.392 C 177.635 305.851, 177.254 305, 179.430 305 C 180.216 305, 184.002 309.163, 187.842 314.250 C 202.616 333.822, 208.352 336.339, 220.124 328.416 C 222.807 326.611, 226.014 324.832, 227.251 324.463 C 231.537 323.184, 234 320.999, 234 318.477 C 234 315.432, 233.900 315.432, 226.500 318.481 C 219.986 321.164, 212.542 321.877, 213.248 319.750 C 213.477 319.063, 215.877 318.211, 218.582 317.857 C 227.281 316.720, 232 313.527, 232 308.777 C 232 306.481, 231.569 306.513, 220.802 309.611 C 210.678 312.523, 204.901 312.371, 197.250 308.990 C 192.399 306.847, 192.037 307.450, 194.554 313.476 C 196.651 318.495, 195.916 321.743, 193.757 317 C 192.881 315.075, 190.614 310.125, 188.721 306 C 183.412 294.436, 176.812 287.921, 166.398 283.961 C 164.076 283.078, 163.918 283.185, 164.511 285.249 M 145.799 293.362 C 131.255 306.310, 123.277 317.234, 118.080 331.313 C 116.382 335.914, 114.817 338.604, 113.716 338.816 C 112.415 339.067, 112 338.450, 112 336.264 C 112 331.372, 109.866 329.527, 104.476 329.762 C 96.078 330.127, 89.591 334.026, 79.040 345.046 C 73.793 350.527, 69.033 355.009, 68.461 355.006 C 67.890 355.003, 65.665 354.104, 63.516 353.008 C 60.155 351.295, 59.321 351.203, 57.554 352.354 C 54.445 354.378, 51.849 363.332, 51.742 372.398 C 51.659 379.366, 51.905 380.505, 53.824 382.059 C 55.021 383.028, 56 384.311, 56 384.910 C 56 385.510, 56.450 386, 57 386 C 57.550 386, 58 385.550, 58 385 C 58 384.450, 58.731 384, 59.625 384 C 60.871 384, 61.120 384.652, 60.691 386.797 C 60.383 388.335, 60.517 390.219, 60.989 390.983 C 62.335 393.160, 64.645 390.624, 65.353 386.191 C 65.692 384.072, 67.717 380.060, 69.973 377.036 C 72.182 374.075, 74.932 369.706, 76.084 367.326 C 78.552 362.227, 80 361.781, 80 366.117 L 80 369.235 87.750 368.553 C 109.289 366.659, 127.273 362.393, 139.327 356.320 C 152.042 349.914, 167.007 338.821, 169.540 333.923 C 171.565 330.008, 171.365 322.638, 169.113 318.210 C 168.076 316.170, 166.063 310.119, 164.641 304.764 C 163.219 299.409, 161.175 293.304, 160.101 291.197 C 156.450 284.042, 156.229 284.075, 145.799 293.362 M 208.500 295.628 C 200.836 297.301, 196.031 297.840, 192.658 297.408 C 188.159 296.831, 187.887 296.919, 188.822 298.643 C 190.105 301.012, 194.854 305.424, 197.684 306.878 C 201.562 308.870, 211.015 308.140, 222 305 C 227.773 303.350, 232.609 302, 232.748 302 C 232.887 302, 233 300.441, 233 298.535 C 233 292.250, 227.157 291.556, 208.500 295.628 M 182.500 333.674 C 180.850 334.551, 177.236 337.390, 174.470 339.983 C 171.703 342.576, 167.560 345.884, 165.263 347.334 C 160.406 350.400, 159.006 352.596, 158.985 357.184 C 158.976 359.008, 158.552 361.160, 158.042 361.966 C 157.305 363.132, 156.884 362.825, 155.988 360.469 C 155.368 358.839, 155.055 356.492, 155.292 355.253 C 155.529 354.014, 155.526 353, 155.286 353 C 155.046 353, 151.683 354.881, 147.813 357.180 L 140.776 361.361 145.138 362.700 C 171.896 370.918, 186.125 371.115, 197.769 363.432 C 202.450 360.342, 212 349.242, 212 346.890 C 212 346.400, 211.067 346, 209.926 346 C 208.778 346, 205.288 343.555, 202.115 340.528 C 196.517 335.189, 190.874 331.959, 187.282 332.040 C 186.302 332.062, 184.150 332.797, 182.500 333.674" stroke="none" fill="#9e8f77" fill-rule="evenodd"/><path d="M 0 203.002 L 0 406.005 203.250 405.752 L 406.500 405.500 406.752 202.750 L 407.005 0 203.502 0 L 0 0 0 203.002 M 0.490 203.500 C 0.490 315.150, 0.607 360.677, 0.750 304.670 C 0.893 248.664, 0.893 157.314, 0.750 101.670 C 0.607 46.027, 0.490 91.850, 0.490 203.500 M 149.716 95.530 C 144.234 97.542, 139.349 101.405, 132.145 109.426 C 123.505 119.044, 120.604 124.838, 120.546 132.596 C 120.517 136.395, 121.024 139.324, 121.892 140.369 C 123.089 141.812, 123.037 142.591, 121.523 145.948 C 120.280 148.705, 119.962 150.973, 120.440 153.675 C 120.812 155.779, 121.285 159.611, 121.491 162.190 C 121.697 164.770, 122.382 167.845, 123.013 169.025 C 124.310 171.447, 130.176 174.254, 132.266 173.451 C 133.083 173.138, 134.105 173.934, 134.776 175.408 C 136.368 178.902, 140.230 181.150, 145.068 181.399 C 147.750 181.537, 149.536 182.207, 150.151 183.306 C 151.335 185.421, 156.207 188, 159.018 188 L 161.136 188 159.082 190.885 C 157.952 192.472, 156.157 195.800, 155.094 198.280 C 153.265 202.547, 152.899 202.826, 148.310 203.457 C 143.262 204.152, 139.157 203.174, 137.381 200.854 C 136.811 200.109, 135.538 197.250, 134.552 194.500 C 131.379 185.645, 128.359 181.350, 123.764 179.155 C 112.295 173.674, 67.296 165.867, 45.845 165.636 C 38.884 165.561, 32.911 165.773, 32.571 166.107 C 30.895 167.753, 34.068 170.469, 42.130 174.289 C 49.002 177.546, 50.922 178.894, 50.604 180.238 C 49.892 183.250, 53.793 186.884, 59.529 188.551 C 64.679 190.049, 64.900 190.250, 64.357 192.967 C 63.487 197.316, 67.241 199.266, 77.524 199.806 L 85.835 200.242 85.303 203.523 C 84.513 208.387, 87.930 210.250, 98.677 210.814 C 104.694 211.130, 106.832 211.568, 106.071 212.329 C 104.268 214.132, 104.858 217.853, 107.140 219.075 C 108.359 219.727, 111.798 220.038, 115.132 219.797 C 120.047 219.441, 121.072 219.653, 121.537 221.117 C 122.264 223.406, 126.975 224.377, 131.412 223.152 C 133.769 222.501, 136.080 222.519, 138.316 223.205 C 140.889 223.995, 142.979 223.857, 147.242 222.618 C 150.303 221.728, 153.005 221, 153.246 221 C 153.486 221, 154.221 222.795, 154.879 224.989 C 155.536 227.183, 159.070 234.446, 162.733 241.128 C 168.297 251.279, 169.461 254.232, 169.812 259.075 C 170.224 264.778, 170.160 264.948, 165.798 269.564 L 161.365 274.256 158.179 265.350 C 151.865 247.696, 141.802 234.490, 130.385 228.869 C 122.464 224.969, 116.332 224.287, 108.116 226.392 C 104.663 227.276, 101.464 228, 101.007 228 C 100.549 228, 97.479 225.747, 94.184 222.994 C 86.467 216.546, 83.287 215.836, 79.205 219.650 C 75.760 222.870, 74.613 225.810, 75.962 227.960 C 76.748 229.214, 77.159 229.166, 78.865 227.623 C 82.309 224.505, 84.231 225.945, 88.569 234.894 C 90.807 239.511, 93.669 244.123, 94.930 245.144 C 97.792 247.462, 105.577 247.622, 110.729 245.469 C 114.630 243.839, 116.996 244.122, 117.006 246.219 C 117.033 252.600, 122.512 260.690, 129.073 264.037 C 134.850 266.984, 141.362 271.589, 146.677 276.486 L 151.500 280.929 145.500 286.117 C 142.200 288.970, 135.343 295.526, 130.263 300.686 C 122.701 308.366, 120.240 311.675, 116.696 318.926 C 112.860 326.773, 112.154 327.666, 110.516 326.749 C 107.012 324.788, 98.646 325.558, 92.402 328.416 C 88.019 330.422, 84.285 333.418, 77.892 340.059 L 69.283 349 62.165 349 C 55.773 349, 54.887 349.243, 53.488 351.377 C 51 355.175, 50.011 359.813, 49.411 370.500 C 48.908 379.466, 49.064 380.838, 50.923 383.770 C 52.063 385.569, 54.027 387.511, 55.289 388.086 C 56.550 388.660, 58.014 390.114, 58.541 391.315 C 59.210 392.839, 60.378 393.500, 62.402 393.500 C 65.055 393.500, 65.545 392.907, 68.101 386.598 C 69.639 382.801, 72.204 378.076, 73.801 376.098 C 76.334 372.960, 77.331 372.467, 81.602 372.238 C 89.846 371.797, 107.779 369.029, 122.382 365.944 L 136.265 363.011 148.711 366.990 C 164.395 372.004, 172.185 373.362, 182 372.794 C 195.477 372.014, 205.150 365.560, 214.495 351.113 C 216.980 347.273, 219.882 343.855, 220.945 343.518 C 224.004 342.546, 228.839 336.375, 229.563 332.517 C 230.026 330.049, 231.409 328.052, 234.170 325.865 C 238.022 322.815, 238.114 322.594, 238.022 316.620 C 237.971 313.254, 238.226 307.800, 238.591 304.500 C 239.232 298.684, 239.298 296.011, 238.941 290.250 C 238.847 288.738, 239.272 283.687, 239.885 279.026 C 240.498 274.366, 241 265.938, 241 260.297 C 241 251.965, 241.477 248.622, 243.543 242.468 C 245.043 237.999, 246.375 231.141, 246.793 225.739 L 247.500 216.584 255.115 225.664 C 263.646 235.839, 273.752 249.922, 282.445 263.750 C 285.643 268.837, 288.886 273, 289.651 273 C 291.907 273, 293.625 268.230, 292.194 265.939 C 289.620 261.818, 291.050 258.964, 303.231 243.917 C 315.426 228.852, 319.086 219.525, 321.039 198.530 C 321.652 191.947, 322.399 186.164, 322.699 185.679 C 324.067 183.465, 330.520 181.995, 339.218 181.916 C 344.323 181.869, 351.087 181.508, 354.250 181.113 L 360 180.395 360 183.626 C 360 188.403, 362.431 190.324, 367.723 189.728 C 375.094 188.897, 386 180.425, 386 175.530 C 386 173.728, 371.566 165.880, 367.290 165.358 C 362.916 164.824, 357.076 167.841, 356.882 170.735 C 356.710 173.295, 356.711 173.306, 357.404 175.598 C 358.015 177.620, 357.541 177.739, 344.269 178.895 C 336.696 179.554, 328.875 180.326, 326.888 180.611 C 323.521 181.094, 323.235 180.926, 322.679 178.145 C 322.331 176.404, 321.265 174.902, 320.122 174.539 C 318.760 174.106, 317.950 172.633, 317.468 169.708 C 316.260 162.386, 312.154 150.597, 309.611 147.150 C 306.123 142.423, 301.111 139.002, 288.060 132.442 C 271.905 124.321, 264.097 115.865, 268.381 111.131 C 270.573 108.710, 270.418 105.418, 268 103 C 263.988 98.988, 261.479 101.582, 260.552 110.700 C 259.571 120.343, 256.431 135.530, 252.528 149.500 C 250.684 156.100, 248.652 163.475, 248.012 165.888 L 246.849 170.276 242.174 165.684 C 237.358 160.953, 231.811 158, 227.740 158 C 224.901 158, 219.313 148.975, 215.976 139 C 213.831 132.587, 213.771 129.643, 215.597 120.236 C 216.566 115.247, 214.343 111.060, 209.576 108.895 C 207.334 107.877, 204.665 107.034, 203.644 107.022 C 202.623 107.010, 200.860 105.820, 199.726 104.379 C 197.215 101.186, 192.267 99, 187.553 99 C 185.622 99, 180.691 97.875, 176.595 96.500 C 168.048 93.631, 156.067 93.199, 149.716 95.530 M 157.500 97.827 C 150.502 98.639, 132.476 113.921, 128.397 122.500 C 126.074 127.385, 125.205 135.376, 126.765 137.500 C 127.169 138.050, 130.200 138.500, 133.500 138.500 C 137.857 138.500, 139.500 138.868, 139.500 139.844 C 139.500 140.775, 137.901 141.241, 134.297 141.362 C 124.948 141.673, 120.136 149.089, 125.148 155.461 C 126.867 157.647, 127.859 158.078, 130.124 157.625 C 132.938 157.062, 132.951 157.082, 132.374 161.290 C 131.868 164.977, 132.146 165.873, 134.533 168.261 C 136.040 169.767, 138.336 171, 139.636 171 C 142.287 171, 146 167.791, 146 165.500 C 146 164.675, 146.450 164, 147 164 C 147.550 164, 148 165.790, 148 167.977 C 148 173.306, 150.918 175.414, 156.256 173.940 C 159.888 172.937, 163 170.660, 163 169.005 C 163 168.537, 161.942 166.881, 160.649 165.327 C 157.198 161.179, 156 158.515, 156 154.992 C 156 150.589, 158.810 151.384, 160.482 156.259 C 162.150 161.123, 163.768 163.004, 167.702 164.648 C 173.075 166.894, 178.774 163.617, 175.598 160.108 C 173.999 158.342, 173.370 154, 174.712 154 C 175.104 154, 176.382 155.201, 177.553 156.668 C 180.249 160.050, 182.422 159.319, 184.507 154.329 C 186.321 149.988, 187.500 149.037, 191.095 149.015 C 192.522 149.007, 194.462 148.147, 195.405 147.105 C 197.036 145.303, 196.992 145.083, 194.505 142.596 C 192.327 140.418, 191.942 139.231, 192.196 135.476 C 192.591 129.620, 194.336 129.269, 195.086 134.894 C 195.618 138.874, 197.863 142, 200.191 142 C 201.541 142, 205 138.096, 205 136.571 C 205 135.786, 204.325 134.468, 203.500 133.643 C 201.242 131.385, 201.556 128.651, 204 129.290 C 205.549 129.695, 206 129.320, 206 127.629 C 206 126.428, 207.350 124.261, 209 122.813 C 212.676 119.587, 212.807 116.716, 209.434 113.343 C 207.381 111.290, 206.250 110.900, 203.784 111.393 C 201.080 111.934, 200.279 111.517, 197.272 108.005 C 193.953 104.127, 193.647 104, 187.612 104 C 183.279 104, 179.416 103.222, 174.940 101.448 C 167.551 98.520, 161.804 97.327, 157.500 97.827 M 154.021 106.116 C 150.478 107.530, 148 110.015, 148 112.155 C 148 114.446, 151.237 114.624, 153.055 112.434 C 154.926 110.179, 159.503 108, 162.369 108 C 165.475 108, 168 107.055, 168 105.893 C 168 104.696, 157.145 104.870, 154.021 106.116 M 259.049 134.548 C 257.250 142.222, 253.353 157.001, 250.389 167.390 C 247.425 177.780, 245 186.443, 245 186.640 C 245 186.838, 246.525 187, 248.389 187 C 251.470 187, 256.059 185.875, 277.500 179.866 C 282.361 178.503, 286.946 177.980, 292.503 178.152 C 298.688 178.344, 301.487 177.958, 304.825 176.450 L 309.144 174.500 308.683 168.928 C 307.745 157.592, 301.954 150.608, 285.421 140.876 C 274.994 134.738, 267.094 128.206, 263.858 123.048 C 262.374 120.683, 262.204 121.090, 259.049 134.548 M 133.580 123.912 C 132.572 125.025, 131.986 126.975, 132.175 128.584 C 132.576 131.996, 135 133.114, 135 129.888 C 135 128.635, 136.209 126.347, 137.687 124.805 L 140.374 122 137.842 122 C 136.449 122, 134.532 122.860, 133.580 123.912 M 208.472 129.046 C 208.116 129.621, 208.110 132.209, 208.458 134.796 L 209.090 139.500 201.609 147.250 C 197.056 151.967, 193.325 155, 192.077 155 C 190.771 155, 189.107 156.454, 187.500 159 C 186.111 161.200, 184.451 163, 183.810 163 C 183.170 163, 181.483 164.393, 180.061 166.096 C 178.069 168.483, 176.438 169.309, 172.945 169.703 C 169.295 170.114, 168.098 170.764, 166.790 173.043 C 165.613 175.094, 163.717 176.304, 159.901 177.437 C 157.006 178.296, 154.044 179, 153.318 179 C 151.229 179, 151.785 181.736, 154.223 183.443 C 156.480 185.025, 161.127 185.540, 162.325 184.342 C 162.687 183.980, 162.494 183.095, 161.897 182.376 C 161.300 181.656, 160.992 180.525, 161.213 179.862 C 161.457 179.129, 163.203 180.092, 165.670 182.321 C 174.125 189.959, 188.797 194.381, 200.416 192.792 C 208.912 191.630, 217.654 186.623, 221.750 180.574 C 224.510 176.498, 225 174.882, 225 169.855 C 225 163.674, 223.490 158.901, 219.969 153.957 C 217.978 151.160, 217.778 151.100, 215.486 152.601 C 211.876 154.967, 210.189 153.221, 213.520 150.566 C 215.612 148.898, 216.093 147.867, 215.561 146.192 C 214.764 143.681, 212.490 143.280, 211.638 145.500 C 210.955 147.280, 209 147.513, 209 145.814 C 209 145.162, 209.893 143.678, 210.985 142.515 C 212.799 140.585, 212.876 139.866, 211.879 134.201 C 210.831 128.255, 209.864 126.792, 208.472 129.046 M 172.479 132.260 C 171.765 136.069, 173.299 140.794, 175.528 141.649 C 177.907 142.562, 178.518 141.230, 176.661 139.177 C 175.672 138.085, 175 135.655, 175 133.171 C 175 128.221, 173.349 127.624, 172.479 132.260 M 160.423 134.125 C 159.312 135.922, 159.618 142.418, 160.929 144.867 C 162.164 147.175, 165.859 149.145, 167.325 148.277 C 167.779 148.009, 167.133 146.706, 165.890 145.383 C 164.419 143.817, 163.539 141.498, 163.369 138.738 C 163.226 136.407, 163.085 134.162, 163.055 133.750 C 162.971 132.605, 161.206 132.857, 160.423 134.125 M 196.500 160.665 C 192.080 163.001, 190 165.077, 190 167.155 C 190 169.860, 191.572 169.410, 193.990 166.013 C 195.160 164.371, 197.523 162.663, 199.241 162.217 C 202.688 161.324, 204.234 158.977, 201.333 159.040 C 200.325 159.062, 198.150 159.793, 196.500 160.665 M 227.712 169.250 C 228.134 174.730, 227.838 176.177, 225.310 181 C 220.274 190.605, 209.304 196, 194.806 196 C 185.605 196, 177.488 193.941, 171.280 190.031 L 166.500 187.020 164.163 189.760 C 153.938 201.747, 154.785 217.348, 166.856 239.362 C 172.576 249.793, 176.224 258.979, 175.604 261.392 C 175.306 262.552, 172.798 266.287, 170.031 269.694 C 167.264 273.101, 165 276.357, 165 276.929 C 165 277.502, 167.810 279.390, 171.244 281.123 C 174.678 282.857, 180.003 286.049, 183.078 288.217 C 190.759 293.634, 196.763 294.152, 210.681 290.599 C 216.476 289.120, 223.645 288, 227.320 288 L 233.777 288 234.368 284.750 C 235.462 278.732, 236.984 263.540, 236.992 258.554 L 237 253.608 233.702 256.804 C 228.174 262.162, 226.931 260.120, 232.123 254.207 C 239.246 246.095, 244.553 229.914, 243.812 218.571 L 243.500 213.803 240.813 215.925 C 238.734 217.566, 237.746 219.754, 236.446 225.599 C 233.660 238.122, 226.172 245.331, 212.635 248.524 C 201.242 251.210, 180.870 249.958, 177.908 246.389 C 175.584 243.589, 178.416 243.161, 186 245.165 C 201.088 249.151, 217.652 246.047, 226.336 237.607 C 231.259 232.823, 235 224.356, 235 217.998 C 235 213.859, 236.817 212, 240.862 212 C 245.472 212, 248.852 202.995, 245.500 199.643 C 244.675 198.818, 244 197.631, 244 197.006 C 244 196.380, 243.533 194.997, 242.963 193.931 C 241.948 192.034, 241.867 192.039, 238.976 194.176 C 235.342 196.863, 233.867 195.835, 236.829 192.682 C 238.977 190.396, 239.774 185.596, 238.170 184.605 C 236.843 183.785, 227.240 194.139, 225.545 198.218 C 224.695 200.263, 224 203.478, 224 205.364 C 224 208.384, 223.404 209.174, 218.984 212.010 C 214.163 215.104, 206 223.359, 206 225.141 C 206 226.718, 203.370 226.028, 197.910 223.018 C 194.934 221.378, 191.488 220.028, 190.250 220.018 C 189.012 220.008, 188 219.550, 188 219 C 188 217.140, 194.632 217.985, 199.540 220.470 C 204.209 222.834, 205.927 222.636, 205.985 219.728 C 206.013 218.302, 214.366 209.862, 217.198 208.398 C 219.247 207.338, 220 206.202, 220 204.171 C 220 199.128, 224.869 191.182, 231.174 185.935 C 234.435 183.221, 237.527 181, 238.043 181 C 238.560 181, 239.545 181.900, 240.232 183 C 242.025 185.871, 242.788 185.500, 243.948 181.195 C 245.822 174.234, 242.222 167.385, 235.128 164.413 C 233.273 163.636, 230.738 163, 229.493 163 C 227.333 163, 227.252 163.283, 227.712 169.250 M 200.721 166.959 C 200.352 168.370, 199.364 169, 197.520 169 C 195.520 169, 194.937 169.437, 195.187 170.750 C 195.969 174.854, 202.308 172.353, 203.160 167.604 C 203.626 165.008, 201.386 164.416, 200.721 166.959 M 213.569 168.535 C 211.684 171.412, 212.028 172.587, 214.480 171.646 C 216.509 170.867, 217.541 168.141, 216.281 166.881 C 215.636 166.236, 214.703 166.805, 213.569 168.535 M 46.571 170.886 C 45.243 173.034, 51.115 175.128, 62.639 176.616 C 80.623 178.938, 81 179.011, 81 180.188 C 81 180.959, 77.738 181.078, 70 180.589 C 59.264 179.909, 59 179.943, 59 181.997 C 59 186.061, 72.301 189, 90.695 189 C 99.424 189, 100.128 189.141, 98.887 190.636 C 97.720 192.042, 95.871 192.196, 85.762 191.730 C 74.006 191.189, 70 191.521, 70 193.039 C 70 194.862, 78.284 196.405, 90.920 196.936 C 98.616 197.259, 104.483 197.934, 104.675 198.517 C 104.860 199.076, 103.293 199.579, 101.188 199.634 C 96.347 199.761, 93 201.528, 93 203.958 C 93 206.722, 98.820 208.279, 108.656 208.144 C 113.245 208.082, 117 208.237, 117 208.490 C 117 208.742, 115.650 209.647, 114 210.500 C 112.204 211.429, 111 212.843, 111 214.026 C 111 215.652, 111.683 216, 114.878 216 C 117.011 216, 120.371 215.325, 122.346 214.500 C 127.160 212.488, 127.500 212.588, 125.622 215.454 C 124.137 217.720, 124.143 217.981, 125.696 218.850 C 126.803 219.469, 128.921 219.326, 131.898 218.430 C 135.794 217.258, 136.643 217.272, 138.038 218.535 C 139.935 220.251, 145.429 220.444, 149.729 218.945 C 152.625 217.935, 152.751 217.652, 152.628 212.436 C 152.532 208.330, 152.169 207.108, 151.163 207.493 C 147.646 208.837, 141.868 209.112, 138.750 208.082 C 134.149 206.564, 131.459 203.522, 126.521 194.251 C 124.067 189.645, 121.141 185.664, 119.292 184.418 C 114.751 181.358, 82.542 174.198, 63.500 172.017 C 58.550 171.450, 52.859 170.732, 50.853 170.422 C 48.802 170.106, 46.927 170.308, 46.571 170.886 M 217.109 174.387 C 215.267 176.288, 214.266 178.046, 214.828 178.394 C 216.112 179.187, 222 174.275, 222 172.411 C 222 170.188, 220.651 170.733, 217.109 174.387 M 313.200 178.200 C 311.133 180.267, 311.865 181, 316 181 C 319.333 181, 320 180.667, 320 179 C 320 177.476, 319.333 177, 317.200 177 C 315.660 177, 313.860 177.540, 313.200 178.200 M 303.645 180.065 C 302.201 181.201, 300.541 181.834, 299.956 181.473 C 297.852 180.172, 281.551 180.894, 277.500 182.467 C 273.683 183.949, 274.162 183.993, 287.978 183.428 C 301.801 182.863, 307.869 181.640, 309.437 179.102 C 310.621 177.186, 306.416 177.885, 303.645 180.065 M 313.250 184.662 C 311.393 185.412, 311.737 189.743, 313.750 190.950 C 315.417 191.950, 315.417 192.050, 313.750 193.050 C 311.154 194.607, 311.574 197, 314.443 197 C 317.937 197, 319.598 194.049, 319.165 188.611 C 318.850 184.643, 318.499 184.011, 316.649 184.079 C 315.467 184.122, 313.938 184.385, 313.250 184.662 M 284.500 186.010 C 274.538 186.646, 262.750 188.474, 260.701 189.700 C 260.262 189.963, 260.413 190.793, 261.038 191.545 C 263.340 194.320, 260.879 195.076, 257.848 192.526 C 254.918 190.061, 251.640 189.453, 247.403 190.590 C 244.831 191.281, 245.247 195.043, 248.362 199.268 C 250.134 201.671, 250.263 202.563, 249.341 206.018 C 248.756 208.208, 248.448 210, 248.656 210 C 248.864 210, 254.300 208.861, 260.737 207.470 C 270.329 205.396, 272.943 205.148, 275.231 206.096 C 276.850 206.766, 279.730 206.979, 282.087 206.602 C 287.072 205.805, 297.379 200.712, 300.673 197.418 C 302.591 195.499, 303.503 195.199, 304.987 195.993 C 306.022 196.547, 307.292 197, 307.809 197 C 309.135 197, 310.064 191.572, 309.350 188 C 308.752 185.009, 308.731 185, 302.125 185.154 C 298.481 185.238, 290.550 185.623, 284.500 186.010 M 302 200.916 C 300.625 201.351, 296.350 203.292, 292.500 205.229 C 283.675 209.669, 280.154 210.426, 275.216 208.947 C 271.892 207.951, 269.821 208.100, 261.890 209.905 C 256.726 211.081, 251.460 212.274, 250.188 212.556 C 247.971 213.048, 248.069 213.282, 252.581 218.285 C 255.169 221.153, 262.634 230.700, 269.170 239.500 C 275.707 248.300, 281.898 256.625, 282.930 258 C 284.732 260.403, 284.833 260.422, 285.518 258.500 C 287.979 251.596, 292.638 243.329, 298.479 235.500 C 302.172 230.550, 306.221 224.475, 307.477 222 C 310.210 216.615, 312.327 207.653, 311.847 203.500 C 311.540 200.848, 311.094 200.478, 308 200.313 C 306.075 200.210, 303.375 200.481, 302 200.916 M 166.729 207.092 C 163.911 208.732, 165.640 209.858, 170.065 209.264 C 173.229 208.840, 174.771 209.194, 177.024 210.860 C 180.440 213.385, 181.138 213.523, 180.369 211.520 C 179.553 209.394, 173.679 205.995, 170.882 206.030 C 169.572 206.047, 167.703 206.525, 166.729 207.092 M 81.075 221.410 C 80.123 222.556, 80.455 222.941, 82.849 223.467 C 86.544 224.278, 88.350 226.264, 91.098 232.537 C 95.736 243.122, 98.623 244.921, 106.924 242.398 C 113.978 240.255, 114.199 239.976, 112.254 235.685 C 111.060 233.051, 110.112 232.133, 109.031 232.562 C 108.189 232.897, 106.071 233.410, 104.323 233.704 C 101.463 234.185, 100.400 233.531, 93.626 227.119 C 86.130 220.024, 83.295 218.735, 81.075 221.410 M 115.179 231.868 C 114.145 232.524, 114.508 233.732, 116.843 237.414 C 118.503 240.031, 120.125 244.272, 120.495 246.962 C 121.323 252.984, 123.232 254.851, 133.334 259.519 C 137.619 261.499, 142.785 264.606, 144.813 266.423 C 148.595 269.812, 154.859 273.474, 155.603 272.731 C 156.413 271.921, 150.826 256.461, 147.295 249.741 C 142.801 241.189, 135.670 234.573, 128.721 232.510 C 123.127 230.848, 117.228 230.569, 115.179 231.868 M 125.211 238.133 C 125.419 238.756, 127.087 239.769, 128.918 240.383 C 131.040 241.095, 133.746 243.461, 136.374 246.903 C 138.643 249.874, 141.266 252.783, 142.202 253.367 C 144.730 254.945, 145.820 253.094, 143.499 251.164 C 142.399 250.249, 139.924 247.475, 138 245 C 136.076 242.525, 133.601 239.727, 132.501 238.783 C 130.249 236.852, 124.616 236.349, 125.211 238.133 M 164.511 285.249 C 173.112 315.181, 178.484 324.700, 189.012 328.657 C 194.854 330.854, 204.682 336.584, 208.500 340.021 C 210.512 341.832, 212.494 342.328, 216.868 342.115 C 220.275 341.949, 227 334.911, 227 331.511 C 227 329.705, 226.578 328.971, 225.750 329.334 C 210.727 335.918, 207.025 336.377, 200.373 332.478 C 197.723 330.926, 194.249 327.372, 191.329 323.228 C 188.722 319.528, 184.656 314.201, 182.294 311.392 C 177.635 305.851, 177.254 305, 179.430 305 C 180.216 305, 184.002 309.163, 187.842 314.250 C 202.616 333.822, 208.352 336.339, 220.124 328.416 C 222.807 326.611, 226.014 324.832, 227.251 324.463 C 231.537 323.184, 234 320.999, 234 318.477 C 234 315.432, 233.900 315.432, 226.500 318.481 C 219.986 321.164, 212.542 321.877, 213.248 319.750 C 213.477 319.063, 215.877 318.211, 218.582 317.857 C 227.281 316.720, 232 313.527, 232 308.777 C 232 306.481, 231.569 306.513, 220.802 309.611 C 210.678 312.523, 204.901 312.371, 197.250 308.990 C 192.399 306.847, 192.037 307.450, 194.554 313.476 C 196.651 318.495, 195.916 321.743, 193.757 317 C 192.881 315.075, 190.614 310.125, 188.721 306 C 183.412 294.436, 176.812 287.921, 166.398 283.961 C 164.076 283.078, 163.918 283.185, 164.511 285.249 M 145.799 293.362 C 131.255 306.310, 123.277 317.234, 118.080 331.313 C 116.382 335.914, 114.817 338.604, 113.716 338.816 C 112.415 339.067, 112 338.450, 112 336.264 C 112 331.372, 109.866 329.527, 104.476 329.762 C 96.078 330.127, 89.591 334.026, 79.040 345.046 C 73.793 350.527, 69.033 355.009, 68.461 355.006 C 67.890 355.003, 65.665 354.104, 63.516 353.008 C 60.155 351.295, 59.321 351.203, 57.554 352.354 C 54.445 354.378, 51.849 363.332, 51.742 372.398 C 51.659 379.366, 51.905 380.505, 53.824 382.059 C 55.021 383.028, 56 384.311, 56 384.910 C 56 385.510, 56.450 386, 57 386 C 57.550 386, 58 385.550, 58 385 C 58 384.450, 58.731 384, 59.625 384 C 60.871 384, 61.120 384.652, 60.691 386.797 C 60.383 388.335, 60.517 390.219, 60.989 390.983 C 62.335 393.160, 64.645 390.624, 65.353 386.191 C 65.692 384.072, 67.717 380.060, 69.973 377.036 C 72.182 374.075, 74.932 369.706, 76.084 367.326 C 78.552 362.227, 80 361.781, 80 366.117 L 80 369.235 87.750 368.553 C 109.289 366.659, 127.273 362.393, 139.327 356.320 C 152.042 349.914, 167.007 338.821, 169.540 333.923 C 171.565 330.008, 171.365 322.638, 169.113 318.210 C 168.076 316.170, 166.063 310.119, 164.641 304.764 C 163.219 299.409, 161.175 293.304, 160.101 291.197 C 156.450 284.042, 156.229 284.075, 145.799 293.362 M 208.500 295.628 C 200.836 297.301, 196.031 297.840, 192.658 297.408 C 188.159 296.831, 187.887 296.919, 188.822 298.643 C 190.105 301.012, 194.854 305.424, 197.684 306.878 C 201.562 308.870, 211.015 308.140, 222 305 C 227.773 303.350, 232.609 302, 232.748 302 C 232.887 302, 233 300.441, 233 298.535 C 233 292.250, 227.157 291.556, 208.500 295.628 M 182.500 333.674 C 180.850 334.551, 177.236 337.390, 174.470 339.983 C 171.703 342.576, 167.560 345.884, 165.263 347.334 C 160.406 350.400, 159.006 352.596, 158.985 357.184 C 158.976 359.008, 158.552 361.160, 158.042 361.966 C 157.305 363.132, 156.884 362.825, 155.988 360.469 C 155.368 358.839, 155.055 356.492, 155.292 355.253 C 155.529 354.014, 155.526 353, 155.286 353 C 155.046 353, 151.683 354.881, 147.813 357.180 L 140.776 361.361 145.138 362.700 C 171.896 370.918, 186.125 371.115, 197.769 363.432 C 202.450 360.342, 212 349.242, 212 346.890 C 212 346.400, 211.067 346, 209.926 346 C 208.778 346, 205.288 343.555, 202.115 340.528 C 196.517 335.189, 190.874 331.959, 187.282 332.040 C 186.302 332.062, 184.150 332.797, 182.500 333.674" stroke="none" fill="#fbebd4" fill-rule="evenodd"/></svg>