<svg xmlns="http://www.w3.org/2000/svg" width="64" height="64" viewBox="0 0 512 512" version="1.1"><path d="M 485 62.500 C 485 62.775, 485.225 63, 485.500 63 C 485.775 63, 486 62.775, 486 62.500 C 486 62.225, 485.775 62, 485.500 62 C 485.225 62, 485 62.225, 485 62.500 M 490.333 63.667 C 490.700 64.033, 491.300 64.033, 491.667 63.667 C 492.033 63.300, 491.733 63, 491 63 C 490.267 63, 489.967 63.300, 490.333 63.667 M 476 64.500 C 476 64.775, 476.225 65, 476.500 65 C 476.775 65, 477 64.775, 477 64.500 C 477 64.225, 476.775 64, 476.500 64 C 476.225 64, 476 64.225, 476 64.500 M 474 65.500 C 474 65.775, 474.225 66, 474.500 66 C 474.775 66, 475 65.775, 475 65.500 C 475 65.225, 474.775 65, 474.500 65 C 474.225 65, 474 65.225, 474 65.500 M 495 66.500 C 495 66.775, 495.225 67, 495.500 67 C 495.775 67, 496 66.775, 496 66.500 C 496 66.225, 495.775 66, 495.500 66 C 495.225 66, 495 66.225, 495 66.500 M 466 71.500 C 466 71.775, 466.225 72, 466.500 72 C 466.775 72, 467 71.775, 467 71.500 C 467 71.225, 466.775 71, 466.500 71 C 466.225 71, 466 71.225, 466 71.500 M 498 72.500 C 498 72.775, 498.225 73, 498.500 73 C 498.775 73, 499 72.775, 499 72.500 C 499 72.225, 498.775 72, 498.500 72 C 498.225 72, 498 72.225, 498 72.500 M 445 86.500 C 445 86.775, 445.225 87, 445.500 87 C 445.775 87, 446 86.775, 446 86.500 C 446 86.225, 445.775 86, 445.500 86 C 445.225 86, 445 86.225, 445 86.500 M 442 88.500 C 442 88.775, 442.225 89, 442.500 89 C 442.775 89, 443 88.775, 443 88.500 C 443 88.225, 442.775 88, 442.500 88 C 442.225 88, 442 88.225, 442 88.500 M 491.405 90.155 C 490.962 90.870, 491.130 91.038, 491.845 90.595 C 492.998 89.883, 493.393 89, 492.559 89 C 492.316 89, 491.797 89.520, 491.405 90.155 M 439 90.500 C 439 90.775, 439.225 91, 439.500 91 C 439.775 91, 440 90.775, 440 90.500 C 440 90.225, 439.775 90, 439.500 90 C 439.225 90, 439 90.225, 439 90.500 M 434 94.500 C 434 94.775, 434.225 95, 434.500 95 C 434.775 95, 435 94.775, 435 94.500 C 435 94.225, 434.775 94, 434.500 94 C 434.225 94, 434 94.225, 434 94.500 M 484 96.500 C 484 96.775, 484.225 97, 484.500 97 C 484.775 97, 485 96.775, 485 96.500 C 485 96.225, 484.775 96, 484.500 96 C 484.225 96, 484 96.225, 484 96.500 M 425 100.500 C 425 100.775, 425.225 101, 425.500 101 C 425.775 101, 426 100.775, 426 100.500 C 426 100.225, 425.775 100, 425.500 100 C 425.225 100, 425 100.225, 425 100.500 M 475 103.500 C 475 103.775, 475.225 104, 475.500 104 C 475.775 104, 476 103.775, 476 103.500 C 476 103.225, 475.775 103, 475.500 103 C 475.225 103, 475 103.225, 475 103.500 M 473 105.500 C 473 105.775, 473.225 106, 473.500 106 C 473.775 106, 474 105.775, 474 105.500 C 474 105.225, 473.775 105, 473.500 105 C 473.225 105, 473 105.225, 473 105.500 M 469 108.500 C 469 108.775, 469.225 109, 469.500 109 C 469.775 109, 470 108.775, 470 108.500 C 470 108.225, 469.775 108, 469.500 108 C 469.225 108, 469 108.225, 469 108.500 M 466 111.500 C 466 111.775, 466.225 112, 466.500 112 C 466.775 112, 467 111.775, 467 111.500 C 467 111.225, 466.775 111, 466.500 111 C 466.225 111, 466 111.225, 466 111.500 M 408 113.500 C 408 113.775, 408.225 114, 408.500 114 C 408.775 114, 409 113.775, 409 113.500 C 409 113.225, 408.775 113, 408.500 113 C 408.225 113, 408 113.225, 408 113.500 M 406 114.500 C 406 114.775, 406.225 115, 406.500 115 C 406.775 115, 407 114.775, 407 114.500 C 407 114.225, 406.775 114, 406.500 114 C 406.225 114, 406 114.225, 406 114.500 M 460 116.500 C 460 116.775, 460.225 117, 460.500 117 C 460.775 117, 461 116.775, 461 116.500 C 461 116.225, 460.775 116, 460.500 116 C 460.225 116, 460 116.225, 460 116.500 M 457 119.500 C 457 119.775, 457.225 120, 457.500 120 C 457.775 120, 458 119.775, 458 119.500 C 458 119.225, 457.775 119, 457.500 119 C 457.225 119, 457 119.225, 457 119.500 M 395 122.500 C 395 122.775, 395.225 123, 395.500 123 C 395.775 123, 396 122.775, 396 122.500 C 396 122.225, 395.775 122, 395.500 122 C 395.225 122, 395 122.225, 395 122.500 M 450 125.500 C 450 125.775, 450.225 126, 450.500 126 C 450.775 126, 451 125.775, 451 125.500 C 451 125.225, 450.775 125, 450.500 125 C 450.225 125, 450 125.225, 450 125.500 M 448 126.500 C 448 126.775, 448.225 127, 448.500 127 C 448.775 127, 449 126.775, 449 126.500 C 449 126.225, 448.775 126, 448.500 126 C 448.225 126, 448 126.225, 448 126.500 M 443.405 130.155 C 442.962 130.870, 443.130 131.038, 443.845 130.595 C 444.998 129.883, 445.393 129, 444.559 129 C 444.316 129, 443.797 129.520, 443.405 130.155 M 375 137.500 C 375 137.775, 375.225 138, 375.500 138 C 375.775 138, 376 137.775, 376 137.500 C 376 137.225, 375.775 137, 375.500 137 C 375.225 137, 375 137.225, 375 137.500 M 371.333 140.667 C 371.700 141.033, 372.300 141.033, 372.667 140.667 C 373.033 140.300, 372.733 140, 372 140 C 371.267 140, 370.967 140.300, 371.333 140.667 M 368.405 143.155 C 367.962 143.870, 368.130 144.038, 368.845 143.595 C 369.998 142.883, 370.393 142, 369.559 142 C 369.316 142, 368.797 142.520, 368.405 143.155 M 365 145.500 C 365 145.775, 365.225 146, 365.500 146 C 365.775 146, 366 145.775, 366 145.500 C 366 145.225, 365.775 145, 365.500 145 C 365.225 145, 365 145.225, 365 145.500 M 427 145.500 C 427 145.775, 427.225 146, 427.500 146 C 427.775 146, 428 145.775, 428 145.500 C 428 145.225, 427.775 145, 427.500 145 C 427.225 145, 427 145.225, 427 145.500 M 362 147.500 C 362 147.775, 362.225 148, 362.500 148 C 362.775 148, 363 147.775, 363 147.500 C 363 147.225, 362.775 147, 362.500 147 C 362.225 147, 362 147.225, 362 147.500 M 358 150.500 C 358 150.775, 358.225 151, 358.500 151 C 358.775 151, 359 150.775, 359 150.500 C 359 150.225, 358.775 150, 358.500 150 C 358.225 150, 358 150.225, 358 150.500 M 421 150.500 C 421 150.775, 421.225 151, 421.500 151 C 421.775 151, 422 150.775, 422 150.500 C 422 150.225, 421.775 150, 421.500 150 C 421.225 150, 421 150.225, 421 150.500 M 355.405 153.155 C 354.962 153.870, 355.130 154.038, 355.845 153.595 C 356.998 152.883, 357.393 152, 356.559 152 C 356.316 152, 355.797 152.520, 355.405 153.155 M 352 155.500 C 352 155.775, 352.225 156, 352.500 156 C 352.775 156, 353 155.775, 353 155.500 C 353 155.225, 352.775 155, 352.500 155 C 352.225 155, 352 155.225, 352 155.500 M 413 157.500 C 413 157.775, 413.225 158, 413.500 158 C 413.775 158, 414 157.775, 414 157.500 C 414 157.225, 413.775 157, 413.500 157 C 413.225 157, 413 157.225, 413 157.500 M 347.507 158.989 C 347.157 159.555, 347.558 159.723, 348.448 159.382 C 350.180 158.717, 350.497 158, 349.059 158 C 348.541 158, 347.843 158.445, 347.507 158.989 M 344 161.500 C 344 161.775, 344.225 162, 344.500 162 C 344.775 162, 345 161.775, 345 161.500 C 345 161.225, 344.775 161, 344.500 161 C 344.225 161, 344 161.225, 344 161.500 M 342 163.500 C 342 163.775, 342.225 164, 342.500 164 C 342.775 164, 343 163.775, 343 163.500 C 343 163.225, 342.775 163, 342.500 163 C 342.225 163, 342 163.225, 342 163.500 M 337.405 167.155 C 336.962 167.870, 337.130 168.038, 337.845 167.595 C 338.480 167.203, 339 166.684, 339 166.441 C 339 165.607, 338.117 166.002, 337.405 167.155 M 329 173.500 C 329 173.775, 329.225 174, 329.500 174 C 329.775 174, 330 173.775, 330 173.500 C 330 173.225, 329.775 173, 329.500 173 C 329.225 173, 329 173.225, 329 173.500 M 327 175.500 C 327 175.775, 327.225 176, 327.500 176 C 327.775 176, 328 175.775, 328 175.500 C 328 175.225, 327.775 175, 327.500 175 C 327.225 175, 327 175.225, 327 175.500 M 324 178.500 C 324 178.775, 324.225 179, 324.500 179 C 324.775 179, 325 178.775, 325 178.500 C 325 178.225, 324.775 178, 324.500 178 C 324.225 178, 324 178.225, 324 178.500 M 389.405 179.155 C 388.962 179.870, 389.130 180.038, 389.845 179.595 C 390.998 178.883, 391.393 178, 390.559 178 C 390.316 178, 389.797 178.520, 389.405 179.155 M 387 181.500 C 387 181.775, 387.225 182, 387.500 182 C 387.775 182, 388 181.775, 388 181.500 C 388 181.225, 387.775 181, 387.500 181 C 387.225 181, 387 181.225, 387 181.500 M 318 182.500 C 318 182.775, 318.225 183, 318.500 183 C 318.775 183, 319 182.775, 319 182.500 C 319 182.225, 318.775 182, 318.500 182 C 318.225 182, 318 182.225, 318 182.500 M 316 184.500 C 316 184.775, 316.225 185, 316.500 185 C 316.775 185, 317 184.775, 317 184.500 C 317 184.225, 316.775 184, 316.500 184 C 316.225 184, 316 184.225, 316 184.500 M 383 184.500 C 383 184.775, 383.225 185, 383.500 185 C 383.775 185, 384 184.775, 384 184.500 C 384 184.225, 383.775 184, 383.500 184 C 383.225 184, 383 184.225, 383 184.500 M 313 186.500 C 313 186.775, 313.225 187, 313.500 187 C 313.775 187, 314 186.775, 314 186.500 C 314 186.225, 313.775 186, 313.500 186 C 313.225 186, 313 186.225, 313 186.500 M 379 188.500 C 379 188.775, 379.225 189, 379.500 189 C 379.775 189, 380 188.775, 380 188.500 C 380 188.225, 379.775 188, 379.500 188 C 379.225 188, 379 188.225, 379 188.500 M 305 193.500 C 305 193.775, 305.225 194, 305.500 194 C 305.775 194, 306 193.775, 306 193.500 C 306 193.225, 305.775 193, 305.500 193 C 305.225 193, 305 193.225, 305 193.500 M 301 197.500 C 301 197.775, 301.225 198, 301.500 198 C 301.775 198, 302 197.775, 302 197.500 C 302 197.225, 301.775 197, 301.500 197 C 301.225 197, 301 197.225, 301 197.500 M 369 198.500 C 369 198.775, 369.225 199, 369.500 199 C 369.775 199, 370 198.775, 370 198.500 C 370 198.225, 369.775 198, 369.500 198 C 369.225 198, 369 198.225, 369 198.500 M 365.405 202.155 C 364.962 202.870, 365.130 203.038, 365.845 202.595 C 366.998 201.883, 367.393 201, 366.559 201 C 366.316 201, 365.797 201.520, 365.405 202.155 M 294.333 202.667 C 294.700 203.033, 295.300 203.033, 295.667 202.667 C 296.033 202.300, 295.733 202, 295 202 C 294.267 202, 293.967 202.300, 294.333 202.667 M 360 206.500 C 360 206.775, 360.225 207, 360.500 207 C 360.775 207, 361 206.775, 361 206.500 C 361 206.225, 360.775 206, 360.500 206 C 360.225 206, 360 206.225, 360 206.500 M 287.333 208.667 C 287.700 209.033, 288.300 209.033, 288.667 208.667 C 289.033 208.300, 288.733 208, 288 208 C 287.267 208, 286.967 208.300, 287.333 208.667 M 276.872 217.750 C 275.629 219.336, 275.664 219.371, 277.250 218.128 C 278.212 217.373, 279 216.585, 279 216.378 C 279 215.555, 278.179 216.084, 276.872 217.750 M 269 224.500 C 269 224.775, 269.225 225, 269.500 225 C 269.775 225, 270 224.775, 270 224.500 C 270 224.225, 269.775 224, 269.500 224 C 269.225 224, 269 224.225, 269 224.500 M 340.405 227.250 L 338.500 229.500 340.750 227.595 C 342.864 225.805, 343.455 225, 342.655 225 C 342.465 225, 341.453 226.012, 340.405 227.250 M 264 229.500 C 264 229.775, 264.225 230, 264.500 230 C 264.775 230, 265 229.775, 265 229.500 C 265 229.225, 264.775 229, 264.500 229 C 264.225 229, 264 229.225, 264 229.500 M 334 233.500 C 334 233.775, 334.225 234, 334.500 234 C 334.775 234, 335 233.775, 335 233.500 C 335 233.225, 334.775 233, 334.500 233 C 334.225 233, 334 233.225, 334 233.500 M 332 235.500 C 332 235.775, 332.225 236, 332.500 236 C 332.775 236, 333 235.775, 333 235.500 C 333 235.225, 332.775 235, 332.500 235 C 332.225 235, 332 235.225, 332 235.500 M 257 236.500 C 257 236.775, 257.225 237, 257.500 237 C 257.775 237, 258 236.775, 258 236.500 C 258 236.225, 257.775 236, 257.500 236 C 257.225 236, 257 236.225, 257 236.500 M 327 240.500 C 327 240.775, 327.225 241, 327.500 241 C 327.775 241, 328 240.775, 328 240.500 C 328 240.225, 327.775 240, 327.500 240 C 327.225 240, 327 240.225, 327 240.500 M 325 243.500 C 325 243.775, 325.225 244, 325.500 244 C 325.775 244, 326 243.775, 326 243.500 C 326 243.225, 325.775 243, 325.500 243 C 325.225 243, 325 243.225, 325 243.500 M 248 244.500 C 248 244.775, 248.225 245, 248.500 245 C 248.775 245, 249 244.775, 249 244.500 C 249 244.225, 248.775 244, 248.500 244 C 248.225 244, 248 244.225, 248 244.500 M 61.813 246.683 C 62.534 246.972, 63.397 246.936, 63.729 246.604 C 64.061 246.272, 63.471 246.036, 62.417 246.079 C 61.252 246.127, 61.015 246.364, 61.813 246.683 M 67.813 246.683 C 68.534 246.972, 69.397 246.936, 69.729 246.604 C 70.061 246.272, 69.471 246.036, 68.417 246.079 C 67.252 246.127, 67.015 246.364, 67.813 246.683 M 55 247.500 C 55 247.775, 55.225 248, 55.500 248 C 55.775 248, 56 247.775, 56 247.500 C 56 247.225, 55.775 247, 55.500 247 C 55.225 247, 55 247.225, 55 247.500 M 80 247.500 C 80 247.775, 80.225 248, 80.500 248 C 80.775 248, 81 247.775, 81 247.500 C 81 247.225, 80.775 247, 80.500 247 C 80.225 247, 80 247.225, 80 247.500 M 51 248.500 C 51 248.775, 51.225 249, 51.500 249 C 51.775 249, 52 248.775, 52 248.500 C 52 248.225, 51.775 248, 51.500 248 C 51.225 248, 51 248.225, 51 248.500 M 53 248.500 C 53 248.775, 53.225 249, 53.500 249 C 53.775 249, 54 248.775, 54 248.500 C 54 248.225, 53.775 248, 53.500 248 C 53.225 248, 53 248.225, 53 248.500 M 87 249.500 C 87 249.775, 87.225 250, 87.500 250 C 87.775 250, 88 249.775, 88 249.500 C 88 249.225, 87.775 249, 87.500 249 C 87.225 249, 87 249.225, 87 249.500 M 243 249.500 C 243 249.775, 243.225 250, 243.500 250 C 243.775 250, 244 249.775, 244 249.500 C 244 249.225, 243.775 249, 243.500 249 C 243.225 249, 243 249.225, 243 249.500 M 90.500 251 C 90.840 251.550, 91.343 252, 91.618 252 C 91.893 252, 91.840 251.550, 91.500 251 C 91.160 250.450, 90.657 250, 90.382 250 C 90.107 250, 90.160 250.450, 90.500 251 M 317 251.500 C 317 251.775, 317.225 252, 317.500 252 C 317.775 252, 318 251.775, 318 251.500 C 318 251.225, 317.775 251, 317.500 251 C 317.225 251, 317 251.225, 317 251.500 M 43 252.500 C 43 252.775, 43.225 253, 43.500 253 C 43.775 253, 44 252.775, 44 252.500 C 44 252.225, 43.775 252, 43.500 252 C 43.225 252, 43 252.225, 43 252.500 M 94 252.500 C 94 252.775, 94.225 253, 94.500 253 C 94.775 253, 95 252.775, 95 252.500 C 95 252.225, 94.775 252, 94.500 252 C 94.225 252, 94 252.225, 94 252.500 M 239 253.500 C 239 253.775, 239.225 254, 239.500 254 C 239.775 254, 240 253.775, 240 253.500 C 240 253.225, 239.775 253, 239.500 253 C 239.225 253, 239 253.225, 239 253.500 M 316 253.500 C 316 253.775, 316.225 254, 316.500 254 C 316.775 254, 317 253.775, 317 253.500 C 317 253.225, 316.775 253, 316.500 253 C 316.225 253, 316 253.225, 316 253.500 M 313 256 C 313 256.733, 313.300 257.033, 313.667 256.667 C 314.033 256.300, 314.033 255.700, 313.667 255.333 C 313.300 254.967, 313 255.267, 313 256 M 30 259.500 C 30 259.775, 30.225 260, 30.500 260 C 30.775 260, 31 259.775, 31 259.500 C 31 259.225, 30.775 259, 30.500 259 C 30.225 259, 30 259.225, 30 259.500 M 28 261.500 C 28 261.775, 28.225 262, 28.500 262 C 28.775 262, 29 261.775, 29 261.500 C 29 261.225, 28.775 261, 28.500 261 C 28.225 261, 28 261.225, 28 261.500 M 108 262.500 C 108 262.775, 108.225 263, 108.500 263 C 108.775 263, 109 262.775, 109 262.500 C 109 262.225, 108.775 262, 108.500 262 C 108.225 262, 108 262.225, 108 262.500 M 110 263.500 C 110 263.775, 110.225 264, 110.500 264 C 110.775 264, 111 263.775, 111 263.500 C 111 263.225, 110.775 263, 110.500 263 C 110.225 263, 110 263.225, 110 263.500 M 305 265.500 C 305 265.775, 305.225 266, 305.500 266 C 305.775 266, 306 265.775, 306 265.500 C 306 265.225, 305.775 265, 305.500 265 C 305.225 265, 305 265.225, 305 265.500 M 21 266.500 C 21 266.775, 21.225 267, 21.500 267 C 21.775 267, 22 266.775, 22 266.500 C 22 266.225, 21.775 266, 21.500 266 C 21.225 266, 21 266.225, 21 266.500 M 225 267.500 C 225 267.775, 225.225 268, 225.500 268 C 225.775 268, 226 267.775, 226 267.500 C 226 267.225, 225.775 267, 225.500 267 C 225.225 267, 225 267.225, 225 267.500 M 303 268.500 C 303 268.775, 303.225 269, 303.500 269 C 303.775 269, 304 268.775, 304 268.500 C 304 268.225, 303.775 268, 303.500 268 C 303.225 268, 303 268.225, 303 268.500 M 118.500 271 C 118.840 271.550, 119.343 272, 119.618 272 C 119.893 272, 119.840 271.550, 119.500 271 C 119.160 270.450, 118.657 270, 118.382 270 C 118.107 270, 118.160 270.450, 118.500 271 M 218.461 274.043 C 216.942 275.721, 216.901 275.975, 218.229 275.466 C 219.118 275.125, 220.091 274.205, 220.391 273.423 C 221.138 271.476, 220.639 271.636, 218.461 274.043 M 123 275.500 C 123 275.775, 123.225 276, 123.500 276 C 123.775 276, 124 275.775, 124 275.500 C 124 275.225, 123.775 275, 123.500 275 C 123.225 275, 123 275.225, 123 275.500 M 296 276.500 C 296 276.775, 296.225 277, 296.500 277 C 296.775 277, 297 276.775, 297 276.500 C 297 276.225, 296.775 276, 296.500 276 C 296.225 276, 296 276.225, 296 276.500 M 13 277.500 C 13 277.775, 13.225 278, 13.500 278 C 13.775 278, 14 277.775, 14 277.500 C 14 277.225, 13.775 277, 13.500 277 C 13.225 277, 13 277.225, 13 277.500 M 215 277.500 C 215 277.775, 215.225 278, 215.500 278 C 215.775 278, 216 277.775, 216 277.500 C 216 277.225, 215.775 277, 215.500 277 C 215.225 277, 215 277.225, 215 277.500 M 126 279.500 C 126 279.775, 126.225 280, 126.500 280 C 126.775 280, 127 279.775, 127 279.500 C 127 279.225, 126.775 279, 126.500 279 C 126.225 279, 126 279.225, 126 279.500 M 12 280.500 C 12 280.775, 12.225 281, 12.500 281 C 12.775 281, 13 280.775, 13 280.500 C 13 280.225, 12.775 280, 12.500 280 C 12.225 280, 12 280.225, 12 280.500 M 292 280.500 C 292 280.775, 292.225 281, 292.500 281 C 292.775 281, 293 280.775, 293 280.500 C 293 280.225, 292.775 280, 292.500 280 C 292.225 280, 292 280.225, 292 280.500 M 128 282 C 128 282.733, 128.300 283.033, 128.667 282.667 C 129.033 282.300, 129.033 281.700, 128.667 281.333 C 128.300 280.967, 128 281.267, 128 282 M 12 282.500 C 12 282.775, 12.225 283, 12.500 283 C 12.775 283, 13 282.775, 13 282.500 C 13 282.225, 12.775 282, 12.500 282 C 12.225 282, 12 282.225, 12 282.500 M 210 283.500 C 210 283.775, 210.225 284, 210.500 284 C 210.775 284, 211 283.775, 211 283.500 C 211 283.225, 210.775 283, 210.500 283 C 210.225 283, 210 283.225, 210 283.500 M 131 285.500 C 131 285.775, 131.225 286, 131.500 286 C 131.775 286, 132 285.775, 132 285.500 C 132 285.225, 131.775 285, 131.500 285 C 131.225 285, 131 285.225, 131 285.500 M 288 286 C 288 286.733, 288.300 287.033, 288.667 286.667 C 289.033 286.300, 289.033 285.700, 288.667 285.333 C 288.300 284.967, 288 285.267, 288 286 M 133 288 C 133 288.733, 133.300 289.033, 133.667 288.667 C 134.033 288.300, 134.033 287.700, 133.667 287.333 C 133.300 286.967, 133 287.267, 133 288 M 15 289.500 C 15 289.775, 15.225 290, 15.500 290 C 15.775 290, 16 289.775, 16 289.500 C 16 289.225, 15.775 289, 15.500 289 C 15.225 289, 15 289.225, 15 289.500 M 135 291 C 135 291.733, 135.300 292.033, 135.667 291.667 C 136.033 291.300, 136.033 290.700, 135.667 290.333 C 135.300 289.967, 135 290.267, 135 291 M 200 294.500 C 200 294.775, 200.225 295, 200.500 295 C 200.775 295, 201 294.775, 201 294.500 C 201 294.225, 200.775 294, 200.500 294 C 200.225 294, 200 294.225, 200 294.500 M 141 298.500 C 141 298.775, 141.225 299, 141.500 299 C 141.775 299, 142 298.775, 142 298.500 C 142 298.225, 141.775 298, 141.500 298 C 141.225 298, 141 298.225, 141 298.500 M 278 299.500 C 278 299.775, 278.225 300, 278.500 300 C 278.775 300, 279 299.775, 279 299.500 C 279 299.225, 278.775 299, 278.500 299 C 278.225 299, 278 299.225, 278 299.500 M 26 300.500 C 26 300.775, 26.225 301, 26.500 301 C 26.775 301, 27 300.775, 27 300.500 C 27 300.225, 26.775 300, 26.500 300 C 26.225 300, 26 300.225, 26 300.500 M 195 300.500 C 195 300.775, 195.225 301, 195.500 301 C 195.775 301, 196 300.775, 196 300.500 C 196 300.225, 195.775 300, 195.500 300 C 195.225 300, 195 300.225, 195 300.500 M 277 301.500 C 277 301.775, 277.225 302, 277.500 302 C 277.775 302, 278 301.775, 278 301.500 C 278 301.225, 277.775 301, 277.500 301 C 277.225 301, 277 301.225, 277 301.500 M 191.405 305.155 C 190.962 305.870, 191.130 306.038, 191.845 305.595 C 192.480 305.203, 193 304.684, 193 304.441 C 193 303.607, 192.117 304.002, 191.405 305.155 M 147 308.500 C 147 308.775, 147.225 309, 147.500 309 C 147.775 309, 148 308.775, 148 308.500 C 148 308.225, 147.775 308, 147.500 308 C 147.225 308, 147 308.225, 147 308.500 M 189 308.500 C 189 308.775, 189.225 309, 189.500 309 C 189.775 309, 190 308.775, 190 308.500 C 190 308.225, 189.775 308, 189.500 308 C 189.225 308, 189 308.225, 189 308.500 M 35 309.500 C 35 309.775, 35.225 310, 35.500 310 C 35.775 310, 36 309.775, 36 309.500 C 36 309.225, 35.775 309, 35.500 309 C 35.225 309, 35 309.225, 35 309.500 M 187 310.500 C 187 310.775, 187.225 311, 187.500 311 C 187.775 311, 188 310.775, 188 310.500 C 188 310.225, 187.775 310, 187.500 310 C 187.225 310, 187 310.225, 187 310.500 M 37 311.500 C 37 311.775, 37.225 312, 37.500 312 C 37.775 312, 38 311.775, 38 311.500 C 38 311.225, 37.775 311, 37.500 311 C 37.225 311, 37 311.225, 37 311.500 M 150 314.500 C 150 314.775, 150.225 315, 150.500 315 C 150.775 315, 151 314.775, 151 314.500 C 151 314.225, 150.775 314, 150.500 314 C 150.225 314, 150 314.225, 150 314.500 M 184 314.500 C 184 314.775, 184.225 315, 184.500 315 C 184.775 315, 185 314.775, 185 314.500 C 185 314.225, 184.775 314, 184.500 314 C 184.225 314, 184 314.225, 184 314.500 M 267 314.500 C 267 314.775, 267.225 315, 267.500 315 C 267.775 315, 268 314.775, 268 314.500 C 268 314.225, 267.775 314, 267.500 314 C 267.225 314, 267 314.225, 267 314.500 M 265 317.500 C 265 317.775, 265.225 318, 265.500 318 C 265.775 318, 266 317.775, 266 317.500 C 266 317.225, 265.775 317, 265.500 317 C 265.225 317, 265 317.225, 265 317.500 M 180.564 319.707 C 180.022 321.132, 180.136 321.247, 181.124 320.267 C 181.808 319.588, 182.115 318.781, 181.807 318.474 C 181.499 318.166, 180.940 318.721, 180.564 319.707 M 45 320 C 45 320.733, 45.300 321.033, 45.667 320.667 C 46.033 320.300, 46.033 319.700, 45.667 319.333 C 45.300 318.967, 45 319.267, 45 320 M 154 321.500 C 154 321.775, 154.225 322, 154.500 322 C 154.775 322, 155 321.775, 155 321.500 C 155 321.225, 154.775 321, 154.500 321 C 154.225 321, 154 321.225, 154 321.500 M 261 324.500 C 261 324.775, 261.225 325, 261.500 325 C 261.775 325, 262 324.775, 262 324.500 C 262 324.225, 261.775 324, 261.500 324 C 261.225 324, 261 324.225, 261 324.500 M 173 330.500 C 173 330.775, 173.225 331, 173.500 331 C 173.775 331, 174 330.775, 174 330.500 C 174 330.225, 173.775 330, 173.500 330 C 173.225 330, 173 330.225, 173 330.500 M 170 334.500 C 170 334.775, 170.225 335, 170.500 335 C 170.775 335, 171 334.775, 171 334.500 C 171 334.225, 170.775 334, 170.500 334 C 170.225 334, 170 334.225, 170 334.500 M 253 337 C 253 337.733, 253.300 338.033, 253.667 337.667 C 254.033 337.300, 254.033 336.700, 253.667 336.333 C 253.300 335.967, 253 336.267, 253 337 M 60 338.500 C 60 338.775, 60.225 339, 60.500 339 C 60.775 339, 61 338.775, 61 338.500 C 61 338.225, 60.775 338, 60.500 338 C 60.225 338, 60 338.225, 60 338.500 M 164 340.500 C 164 340.775, 164.225 341, 164.500 341 C 164.775 341, 165 340.775, 165 340.500 C 165 340.225, 164.775 340, 164.500 340 C 164.225 340, 164 340.225, 164 340.500 M 251 340.500 C 251 340.775, 251.225 341, 251.500 341 C 251.775 341, 252 340.775, 252 340.500 C 252 340.225, 251.775 340, 251.500 340 C 251.225 340, 251 340.225, 251 340.500 M 250 342.500 C 250 342.775, 250.225 343, 250.500 343 C 250.775 343, 251 342.775, 251 342.500 C 251 342.225, 250.775 342, 250.500 342 C 250.225 342, 250 342.225, 250 342.500 M 247 347.500 C 247 347.775, 247.225 348, 247.500 348 C 247.775 348, 248 347.775, 248 347.500 C 248 347.225, 247.775 347, 247.500 347 C 247.225 347, 247 347.225, 247 347.500 M 246 349.500 C 246 349.775, 246.225 350, 246.500 350 C 246.775 350, 247 349.775, 247 349.500 C 247 349.225, 246.775 349, 246.500 349 C 246.225 349, 246 349.225, 246 349.500 M 244.333 351.667 C 244.700 352.033, 245.300 352.033, 245.667 351.667 C 246.033 351.300, 245.733 351, 245 351 C 244.267 351, 243.967 351.300, 244.333 351.667 M 70.500 353 C 70.840 353.550, 71.343 354, 71.618 354 C 71.893 354, 71.840 353.550, 71.500 353 C 71.160 352.450, 70.657 352, 70.382 352 C 70.107 352, 70.160 352.450, 70.500 353 M 243 354.500 C 243 354.775, 243.225 355, 243.500 355 C 243.775 355, 244 354.775, 244 354.500 C 244 354.225, 243.775 354, 243.500 354 C 243.225 354, 243 354.225, 243 354.500 M 74 357.500 C 74 357.775, 74.225 358, 74.500 358 C 74.775 358, 75 357.775, 75 357.500 C 75 357.225, 74.775 357, 74.500 357 C 74.225 357, 74 357.225, 74 357.500 M 75 359.500 C 75 359.775, 75.225 360, 75.500 360 C 75.775 360, 76 359.775, 76 359.500 C 76 359.225, 75.775 359, 75.500 359 C 75.225 359, 75 359.225, 75 359.500 M 238 363.500 C 238 363.775, 238.225 364, 238.500 364 C 238.775 364, 239 363.775, 239 363.500 C 239 363.225, 238.775 363, 238.500 363 C 238.225 363, 238 363.225, 238 363.500 M 81 367.500 C 81 367.775, 81.225 368, 81.500 368 C 81.775 368, 82 367.775, 82 367.500 C 82 367.225, 81.775 367, 81.500 367 C 81.225 367, 81 367.225, 81 367.500 M 235.405 369.155 C 234.962 369.870, 235.130 370.038, 235.845 369.595 C 236.480 369.203, 237 368.684, 237 368.441 C 237 367.607, 236.117 368.002, 235.405 369.155 M 86 375.500 C 86 375.775, 86.225 376, 86.500 376 C 86.775 376, 87 375.775, 87 375.500 C 87 375.225, 86.775 375, 86.500 375 C 86.225 375, 86 375.225, 86 375.500 M 92 384.500 C 92 384.775, 92.225 385, 92.500 385 C 92.775 385, 93 384.775, 93 384.500 C 93 384.225, 92.775 384, 92.500 384 C 92.225 384, 92 384.225, 92 384.500 M 228 385.500 C 228 385.775, 228.225 386, 228.500 386 C 228.775 386, 229 385.775, 229 385.500 C 229 385.225, 228.775 385, 228.500 385 C 228.225 385, 228 385.225, 228 385.500 M 96 391.500 C 96 391.775, 96.225 392, 96.500 392 C 96.775 392, 97 391.775, 97 391.500 C 97 391.225, 96.775 391, 96.500 391 C 96.225 391, 96 391.225, 96 391.500 M 226 391.500 C 226 391.775, 226.225 392, 226.500 392 C 226.775 392, 227 391.775, 227 391.500 C 227 391.225, 226.775 391, 226.500 391 C 226.225 391, 226 391.225, 226 391.500 M 98 394.500 C 98 394.775, 98.225 395, 98.500 395 C 98.775 395, 99 394.775, 99 394.500 C 99 394.225, 98.775 394, 98.500 394 C 98.225 394, 98 394.225, 98 394.500 M 100 397.500 C 100 397.775, 100.225 398, 100.500 398 C 100.775 398, 101 397.775, 101 397.500 C 101 397.225, 100.775 397, 100.500 397 C 100.225 397, 100 397.225, 100 397.500 M 223 398.500 C 223 398.775, 223.225 399, 223.500 399 C 223.775 399, 224 398.775, 224 398.500 C 224 398.225, 223.775 398, 223.500 398 C 223.225 398, 223 398.225, 223 398.500 M 223 400.500 C 223 400.775, 223.225 401, 223.500 401 C 223.775 401, 224 400.775, 224 400.500 C 224 400.225, 223.775 400, 223.500 400 C 223.225 400, 223 400.225, 223 400.500 M 103 402.500 C 103 402.775, 103.225 403, 103.500 403 C 103.775 403, 104 402.775, 104 402.500 C 104 402.225, 103.775 402, 103.500 402 C 103.225 402, 103 402.225, 103 402.500 M 222 403.500 C 222 403.775, 222.225 404, 222.500 404 C 222.775 404, 223 403.775, 223 403.500 C 223 403.225, 222.775 403, 222.500 403 C 222.225 403, 222 403.225, 222 403.500 M 221 406.500 C 221 406.775, 221.225 407, 221.500 407 C 221.775 407, 222 406.775, 222 406.500 C 222 406.225, 221.775 406, 221.500 406 C 221.225 406, 221 406.225, 221 406.500 M 209.333 415.667 C 209.700 416.033, 210.300 416.033, 210.667 415.667 C 211.033 415.300, 210.733 415, 210 415 C 209.267 415, 208.967 415.300, 209.333 415.667 M 199 420.500 C 199 420.775, 199.225 421, 199.500 421 C 199.775 421, 200 420.775, 200 420.500 C 200 420.225, 199.775 420, 199.500 420 C 199.225 420, 199 420.225, 199 420.500 M 115 423.500 C 115 423.775, 115.225 424, 115.500 424 C 115.775 424, 116 423.775, 116 423.500 C 116 423.225, 115.775 423, 115.500 423 C 115.225 423, 115 423.225, 115 423.500 M 190 424.500 C 190 424.775, 190.225 425, 190.500 425 C 190.775 425, 191 424.775, 191 424.500 C 191 424.225, 190.775 424, 190.500 424 C 190.225 424, 190 424.225, 190 424.500 M 116 425.500 C 116 425.775, 116.225 426, 116.500 426 C 116.775 426, 117 425.775, 117 425.500 C 117 425.225, 116.775 425, 116.500 425 C 116.225 425, 116 425.225, 116 425.500 M 186 426.500 C 186 426.775, 186.225 427, 186.500 427 C 186.775 427, 187 426.775, 187 426.500 C 187 426.225, 186.775 426, 186.500 426 C 186.225 426, 186 426.225, 186 426.500 M 178.405 430.155 C 177.962 430.870, 178.130 431.038, 178.845 430.595 C 179.480 430.203, 180 429.684, 180 429.441 C 180 428.607, 179.117 429.002, 178.405 430.155 M 176 431.500 C 176 431.775, 176.225 432, 176.500 432 C 176.775 432, 177 431.775, 177 431.500 C 177 431.225, 176.775 431, 176.500 431 C 176.225 431, 176 431.225, 176 431.500 M 169 434.500 C 169 434.775, 169.225 435, 169.500 435 C 169.775 435, 170 434.775, 170 434.500 C 170 434.225, 169.775 434, 169.500 434 C 169.225 434, 169 434.225, 169 434.500 M 122 435.500 C 122 435.775, 122.225 436, 122.500 436 C 122.775 436, 123 435.775, 123 435.500 C 123 435.225, 122.775 435, 122.500 435 C 122.225 435, 122 435.225, 122 435.500 M 166 436.500 C 166 436.775, 166.225 437, 166.500 437 C 166.775 437, 167 436.775, 167 436.500 C 167 436.225, 166.775 436, 166.500 436 C 166.225 436, 166 436.225, 166 436.500 M 164 437.500 C 164 437.775, 164.225 438, 164.500 438 C 164.775 438, 165 437.775, 165 437.500 C 165 437.225, 164.775 437, 164.500 437 C 164.225 437, 164 437.225, 164 437.500 M 161 439.500 C 161 439.775, 161.225 440, 161.500 440 C 161.775 440, 162 439.775, 162 439.500 C 162 439.225, 161.775 439, 161.500 439 C 161.225 439, 161 439.225, 161 439.500 M 158 440.500 C 158 440.775, 158.225 441, 158.500 441 C 158.775 441, 159 440.775, 159 440.500 C 159 440.225, 158.775 440, 158.500 440 C 158.225 440, 158 440.225, 158 440.500 M 125 442.500 C 125 442.775, 125.225 443, 125.500 443 C 125.775 443, 126 442.775, 126 442.500 C 126 442.225, 125.775 442, 125.500 442 C 125.225 442, 125 442.225, 125 442.500 M 155 442.500 C 155 442.775, 155.225 443, 155.500 443 C 155.775 443, 156 442.775, 156 442.500 C 156 442.225, 155.775 442, 155.500 442 C 155.225 442, 155 442.225, 155 442.500 M 152 444 C 151.099 444.582, 150.975 444.975, 151.691 444.985 C 152.346 444.993, 153.160 444.550, 153.500 444 C 154.267 442.758, 153.921 442.758, 152 444 M 127 445.500 C 127 445.775, 127.225 446, 127.500 446 C 127.775 446, 128 445.775, 128 445.500 C 128 445.225, 127.775 445, 127.500 445 C 127.225 445, 127 445.225, 127 445.500 M 147 447.500 C 147 447.775, 147.225 448, 147.500 448 C 147.775 448, 148 447.775, 148 447.500 C 148 447.225, 147.775 447, 147.500 447 C 147.225 447, 147 447.225, 147 447.500 M 131.333 448.667 C 131.700 449.033, 132.300 449.033, 132.667 448.667 C 133.033 448.300, 132.733 448, 132 448 C 131.267 448, 130.967 448.300, 131.333 448.667 M 134 449.500 C 134 449.775, 134.225 450, 134.500 450 C 134.775 450, 135 449.775, 135 449.500 C 135 449.225, 134.775 449, 134.500 449 C 134.225 449, 134 449.225, 134 449.500 M 141 449.500 C 141 449.775, 141.225 450, 141.500 450 C 141.775 450, 142 449.775, 142 449.500 C 142 449.225, 141.775 449, 141.500 449 C 141.225 449, 141 449.225, 141 449.500 M 143 449.500 C 143 449.775, 143.225 450, 143.500 450 C 143.775 450, 144 449.775, 144 449.500 C 144 449.225, 143.775 449, 143.500 449 C 143.225 449, 143 449.225, 143 449.500" stroke="none" fill="#84d490" fill-rule="evenodd"/><path d="M 477.807 63.336 C 477.034 64.109, 475.074 65.436, 473.451 66.285 C 471.828 67.135, 469.506 68.768, 468.292 69.915 C 467.077 71.062, 465.836 72, 465.534 72 C 464.644 72, 446.532 85.244, 446.167 86.162 C 445.983 86.623, 445.196 87, 444.417 87 C 443.637 87, 443 87.367, 443 87.816 C 443 88.265, 441.200 89.643, 439 90.880 C 436.800 92.116, 435 93.549, 435 94.064 C 435 94.579, 434.428 95, 433.728 95 C 433.028 95, 430.891 96.256, 428.978 97.790 C 427.065 99.325, 421.788 103.222, 417.250 106.451 C 412.712 109.680, 409 112.627, 409 113 C 409 113.374, 407.924 114.169, 406.608 114.769 C 403.949 115.980, 376.894 136.106, 373.902 139.098 C 372.856 140.144, 371.598 141, 371.107 141 C 370.616 141, 369.955 141.675, 369.638 142.500 C 369.322 143.325, 368.411 144, 367.615 144 C 366.818 144, 366.017 144.338, 365.833 144.750 C 365.650 145.162, 363.700 146.825, 361.500 148.445 C 359.300 150.065, 357.140 151.977, 356.700 152.695 C 356.260 153.413, 355.248 154, 354.450 154 C 353.653 154, 353 154.420, 353 154.933 C 353 155.446, 352.093 156.153, 350.985 156.505 C 349.877 156.856, 349.209 157.529, 349.500 158 C 349.791 158.471, 349.235 159.111, 348.265 159.422 C 346.701 159.923, 343.434 162.344, 339.076 166.230 C 338.293 166.929, 336.870 167.950, 335.914 168.500 C 334.957 169.050, 332.656 170.887, 330.799 172.582 C 328.941 174.277, 326.692 176.077, 325.799 176.582 C 324.906 177.087, 322.434 179.075, 320.305 181 C 318.176 182.925, 314.424 186.051, 311.967 187.946 C 306.288 192.327, 303.642 194.586, 298.721 199.250 C 296.545 201.313, 294.408 203, 293.971 203 C 293.535 203, 292.042 204.350, 290.653 206 C 289.265 207.650, 287.763 209.006, 287.315 209.013 C 286.867 209.021, 283.992 211.383, 280.927 214.263 C 277.862 217.143, 271.562 222.863, 266.927 226.973 C 260.474 232.695, 224.157 268.583, 218.831 274.500 C 218.336 275.050, 216.621 276.850, 215.020 278.500 C 207.794 285.946, 203.771 290.491, 198.003 297.727 C 194.594 302.002, 191.062 306.401, 190.153 307.503 C 185.569 313.059, 182 317.860, 182 318.471 C 182 318.846, 180.762 320.394, 179.250 321.911 C 177.738 323.427, 175.826 325.980, 175.002 327.584 C 174.177 329.188, 173.276 330.725, 172.999 331 C 172.721 331.275, 171.220 333.379, 169.663 335.675 C 167.146 339.388, 163.634 342.270, 164.262 340.109 C 164.681 338.668, 155.674 321.084, 154.795 321.627 C 154.331 321.914, 154.069 321.778, 154.213 321.324 C 154.687 319.835, 151.789 314.012, 150.859 314.587 C 150.359 314.896, 150.015 314.778, 150.094 314.324 C 150.396 312.583, 149.953 311.093, 148.750 309.803 C 148.063 309.066, 146.625 306.905, 145.557 305 C 142.088 298.819, 136.290 291.043, 135.637 291.696 C 135.287 292.047, 135 291.583, 135 290.667 C 135 289.750, 134.550 289, 134 289 C 133.450 289, 133 288.325, 133 287.500 C 133 286.675, 132.580 286, 132.067 286 C 131.554 286, 130.847 285.093, 130.495 283.985 C 130.144 282.877, 129.438 282.229, 128.928 282.544 C 128.418 282.860, 128 282.622, 128 282.017 C 128 279.566, 113.912 265.357, 105 258.820 C 101.551 256.291, 91.742 250.636, 91.245 250.892 C 91.105 250.964, 89.358 250.341, 87.362 249.507 C 85.367 248.673, 82.556 247.701, 81.117 247.347 C 77.132 246.365, 60.890 246.309, 57.500 247.264 C 55.850 247.729, 53.647 248.297, 52.604 248.526 C 48.078 249.518, 44 251.230, 44 252.137 C 44 252.676, 43.635 252.892, 43.188 252.616 C 42.159 251.980, 33.295 257.056, 30.023 260.155 C 28.661 261.445, 27.391 262.350, 27.201 262.166 C 26.620 261.605, 15.997 271.136, 14.882 273.221 C 14.010 274.849, 13.205 277.869, 12.839 280.879 C 12.496 283.694, 13.256 287.113, 14.500 288.357 C 15.325 289.182, 16 290.105, 16 290.408 C 16 290.711, 18.138 292.871, 20.750 295.208 C 26.354 300.221, 46 320.097, 46 320.753 C 46 321.003, 49.036 324.873, 52.747 329.353 C 56.458 333.834, 59.835 337.950, 60.252 338.500 C 60.670 339.050, 63.691 343.100, 66.966 347.500 C 70.241 351.900, 73.287 355.950, 73.734 356.500 C 74.182 357.050, 75.887 359.637, 77.524 362.248 C 79.161 364.860, 80.838 366.997, 81.250 366.998 C 81.662 366.999, 82 367.439, 82 367.976 C 82 368.894, 89.718 381.074, 91.968 383.708 C 92.536 384.372, 93 385.184, 93 385.513 C 93 385.841, 94.687 388.683, 96.750 391.829 C 102.311 400.309, 102.921 401.309, 103.898 403.542 C 104.390 404.665, 107.428 410.065, 110.649 415.542 C 113.870 421.019, 117.620 427.637, 118.982 430.250 C 120.344 432.863, 121.730 435, 122.062 435 C 122.395 435, 122.667 435.622, 122.667 436.382 C 122.667 437.142, 123.967 439.819, 125.556 442.331 C 131.302 451.413, 143.408 452.304, 151.820 444.264 C 152.546 443.571, 154.233 442.729, 155.570 442.393 C 156.906 442.058, 158 441.307, 158 440.725 C 158 440.143, 158.279 439.946, 158.621 440.287 C 158.962 440.629, 160.867 439.804, 162.853 438.454 C 164.839 437.104, 167.035 436, 167.732 436 C 168.429 436, 169 435.523, 169 434.941 C 169 434.359, 169.384 434.119, 169.854 434.410 C 170.323 434.700, 172.798 433.611, 175.354 431.991 C 177.909 430.370, 180 429.233, 180 429.463 C 180 429.694, 184.387 427.725, 189.750 425.088 C 195.113 422.450, 201.636 419.439, 204.246 418.396 C 206.857 417.353, 208.994 416.163, 208.996 415.750 C 208.998 415.337, 210.109 415, 211.465 415 C 215.321 415, 220.530 409.736, 222.091 404.264 C 222.838 401.644, 223.348 399.163, 223.225 398.750 C 223.101 398.337, 223.401 398, 223.892 398 C 224.616 398, 225.577 395.749, 226.454 392 C 226.518 391.725, 227.138 390.478, 227.832 389.229 C 228.525 387.980, 228.820 386.518, 228.487 385.979 C 228.154 385.441, 228.287 385, 228.782 385 C 229.662 385, 235.217 372.266, 235.014 370.715 C 234.957 370.283, 235.824 368.767, 236.942 367.347 C 238.059 365.927, 238.727 364.368, 238.427 363.882 C 238.127 363.397, 238.303 363, 238.818 363 C 239.716 363, 243.847 354.447, 243.835 352.612 C 243.832 352.123, 244.242 351.448, 244.747 351.112 C 245.931 350.322, 253 338.190, 253 336.946 C 253 336.426, 253.353 336, 253.784 336 C 254.216 336, 255.407 334.538, 256.430 332.750 C 257.454 330.963, 260.030 326.913, 262.154 323.750 C 264.278 320.587, 265.674 317.986, 265.258 317.970 C 264.841 317.953, 265.297 317.475, 266.271 316.908 C 267.245 316.341, 267.781 315.455, 267.462 314.939 C 267.143 314.422, 267.285 314, 267.778 314 C 268.270 314, 270.885 310.738, 273.587 306.750 C 276.289 302.762, 278.756 299.275, 279.068 299 C 281.385 296.961, 288 287.513, 288 286.244 C 288 285.376, 288.297 284.964, 288.660 285.327 C 289.423 286.089, 292.618 281.912, 292.217 280.676 C 292.071 280.222, 292.410 280.135, 292.971 280.482 C 293.532 280.829, 294.516 279.962, 295.156 278.556 C 295.797 277.150, 296.606 276, 296.955 276 C 297.304 276, 299.220 273.863, 301.214 271.250 C 303.208 268.637, 306.675 264.513, 308.920 262.084 C 311.164 259.655, 313 257.041, 313 256.275 C 313 255.509, 313.427 255.146, 313.950 255.469 C 314.472 255.792, 315.356 255.204, 315.913 254.162 C 316.471 253.121, 319.186 250.071, 321.948 247.384 C 324.709 244.698, 326.976 242.237, 326.984 241.915 C 327.002 241.263, 358.392 208.601, 361.413 206.090 C 362.466 205.216, 368.063 199.887, 373.852 194.250 C 379.641 188.613, 384.616 184, 384.907 184 C 385.198 184, 386.351 182.966, 387.468 181.702 C 388.586 180.438, 394 175.404, 399.500 170.516 C 405 165.628, 411.464 159.800, 413.865 157.565 C 420.214 151.651, 420.335 151.544, 434.773 139.096 C 442.048 132.824, 448 127.380, 448 126.999 C 448 126.618, 448.850 125.899, 449.889 125.403 C 451.839 124.471, 460.754 116.960, 466.689 111.250 C 468.547 109.463, 470.439 108, 470.893 108 C 471.348 108, 472.565 106.875, 473.597 105.500 C 474.630 104.125, 475.837 103, 476.279 103 C 478.050 103, 497.002 85.409, 498.108 82.738 C 501.257 75.137, 498.098 66.689, 491 63.725 C 486.319 61.770, 479.572 61.571, 477.807 63.336 M 443.405 130.155 C 442.962 130.870, 443.130 131.038, 443.845 130.595 C 444.998 129.883, 445.393 129, 444.559 129 C 444.316 129, 443.797 129.520, 443.405 130.155 M 324 178.500 C 324 178.775, 324.225 179, 324.500 179 C 324.775 179, 325 178.775, 325 178.500 C 325 178.225, 324.775 178, 324.500 178 C 324.225 178, 324 178.225, 324 178.500 M 301 197.500 C 301 197.775, 301.225 198, 301.500 198 C 301.775 198, 302 197.775, 302 197.500 C 302 197.225, 301.775 197, 301.500 197 C 301.225 197, 301 197.225, 301 197.500 M 257 236.500 C 257 236.775, 257.225 237, 257.500 237 C 257.775 237, 258 236.775, 258 236.500 C 258 236.225, 257.775 236, 257.500 236 C 257.225 236, 257 236.225, 257 236.500 M 108 262.500 C 108 262.775, 108.225 263, 108.500 263 C 108.775 263, 109 262.775, 109 262.500 C 109 262.225, 108.775 262, 108.500 262 C 108.225 262, 108 262.225, 108 262.500" stroke="none" fill="#7FB800" fill-rule="evenodd"/></svg>