<svg xmlns="http://www.w3.org/2000/svg" width="64" height="64" viewBox="0 0 512 512" version="1.1"><path d="" stroke="none" fill="#f01c24" fill-rule="evenodd"/><path d="M 68.131 46.472 C 52.865 49.950, 40.639 58.891, 34.734 70.893 C 31.699 77.062, 31.502 78.111, 31.538 87.982 C 31.573 97.570, 31.845 99.075, 34.620 105 C 38.596 113.488, 46.263 121.737, 55.263 127.210 C 68.909 135.507, 73.133 138, 73.549 138 C 74.424 138, 97.978 153.638, 108 160.873 C 133.753 179.464, 161.048 201.611, 181.900 220.834 C 187.070 225.600, 192.888 230.883, 194.829 232.574 L 198.358 235.648 192.828 244.074 C 161.142 292.352, 136.154 343.129, 119.904 392.262 C 109.131 424.833, 107.249 435.741, 110.509 446.719 C 112.745 454.247, 117.715 460.990, 123 463.666 C 138.968 471.749, 155.764 458.682, 167.604 428.966 C 177.450 404.256, 196.355 372.061, 218.377 342.500 C 228.030 329.541, 241.043 312.984, 244.651 309.069 C 245.883 307.732, 248.828 304.266, 251.196 301.367 C 253.563 298.469, 255.725 296.105, 256 296.115 C 257.007 296.152, 281.768 326.419, 291.624 339.661 C 313.307 368.794, 334.660 404.641, 342.944 425.817 C 353.487 452.768, 365.402 465.805, 379.628 465.956 C 393.785 466.107, 404.358 450.525, 402.641 432.044 C 401.852 423.553, 393.704 395.623, 386.067 375.225 C 368.832 329.199, 349.011 290.237, 320.663 246.665 L 313.614 235.829 317.557 232.161 C 319.726 230.143, 326 224.444, 331.500 219.496 C 337 214.548, 341.725 210.248, 342 209.939 C 343.637 208.103, 369.596 186.819, 381 177.963 C 404.732 159.534, 425.201 145.607, 447.147 132.956 C 453.933 129.044, 461.459 124.226, 463.872 122.249 C 470.441 116.866, 476.379 108.153, 478.971 100.091 C 486.789 75.776, 471.163 52.388, 443.185 46.531 C 414.736 40.576, 377.887 54.445, 334 87.626 C 322.822 96.077, 322.055 96.699, 309.571 107.449 C 300.417 115.331, 270.282 145.201, 261.599 155 L 255.839 161.500 253.818 159 C 245.437 148.629, 213.215 116.624, 199.453 105 C 182.496 90.678, 172.122 82.796, 157.643 73.233 C 139.023 60.935, 119.002 51.638, 103.142 47.925 C 91.770 45.262, 76.263 44.618, 68.131 46.472" stroke="none" fill="#ec1c24" fill-rule="evenodd"/></svg>